<?xml version="1.0" encoding="utf-8"?>
<!-- Generator: Adobe Illustrator 22.0.1, SVG Export Plug-In . SVG Version: 6.00 Build 0)  -->
<svg version="1.1" id="Слой_1" xmlns="http://www.w3.org/2000/svg" xmlns:xlink="http://www.w3.org/1999/xlink" x="0px" y="0px"
	 viewBox="0 0 170.1 141.7" style="enable-background:new 0 0 170.1 141.7;" xml:space="preserve">
<style type="text/css">
	.st0{fill:#EA0029;}
	.st1{fill:#FFFFFF;}
</style>
<g>
	<g>
		<g>
			<path class="st0" d="M9.8,90c-0.9,0-1.7-0.8-1.7-1.7V60.7c0-0.9,0.8-1.7,1.7-1.7h54.6l-1.3-2H9.8c-2,0-3.7,1.7-3.7,3.7v27.5
				c0,2,1.7,3.7,3.7,3.7h76.6L85,90H9.8z"/>
			<path class="st0" d="M14.8,89.4h0.6V86h6.1c2.9,0,5.2-0.4,6.6-1.1c2-1,3-2.7,3-5.2c0-3-0.9-5-2.8-6c-1.3-0.7-3.7-1-7.3-1v-1.6
				h8.7v0.4h0.6v-0.4h0.4v-0.6h-0.4v-3.2l-0.9-1.1h-5.4h-5.9h-2.8v-3.4h-0.6v3.4h-0.6v0.6h0.6v18.6h-1.2V86h1.2V89.4z M29.8,66.8
				v0.2c-0.5,0.1-1.1,0.2-1.9,0.5c-0.2-0.3-0.4-0.5-0.5-0.7H29.8z M29.8,70v0.7h-3L29.8,70z M21.4,82.7c0.1-0.1,0.1-0.2,0.2-0.4h1
				c0,0.1-0.1,0.3-0.1,0.4c0,0.3,0.1,0.5,0.2,0.7C22.3,83.3,21.8,83,21.4,82.7z M27.7,84.6c0.3-0.3,0.5-0.7,0.6-1.1
				c0.8-0.3,1.4-0.7,1.8-1.2C29.7,83.3,28.9,84,27.7,84.6z M30.5,77.9c-0.5-1.1-1.6-1.9-3.2-2.4c-0.1-0.6-0.3-1.1-0.6-1.4h0
				l-0.5-0.4C28.6,74.1,30,75.5,30.5,77.9z M24.8,73.5c-0.8,0-1.4,0.3-1.8,0.7c-0.2-0.3-0.4-0.5-0.8-0.6l0,0
				c-0.1-0.1-0.2-0.1-0.4-0.2C23.2,73.4,24.1,73.4,24.8,73.5z M22.6,77.3c1.8,0,2.8,0.8,2.8,2.3c0,0.7-0.3,1.3-0.9,1.6
				c-0.5,0.3-1.2,0.5-2,0.5h-1.3v-4.4H22.6z M21.1,66.8h1.2L21.9,67l0.1-0.1c-0.2,0.1-0.3,0.2-0.4,0.2c-0.1,0-0.3,0-0.5,0
				c0,0,0,0-0.1,0c-1.1,0-1.8,0.4-2.2,1.1v-1.3H21.1z M15.4,66.8c0.6,0,1,0,1.2,0c-0.2,0.2-0.5,0.4-0.7,0.6
				c-0.3,0.2-0.4,0.5-0.5,0.7V66.8z M15.4,69.2c0.1,0.3,0.4,0.7,0.9,1.2c0.5,0.5,0.7,0.9,0.7,1.1l0,0.3c-0.7,0.5-1.2,1-1.5,1.4V69.2
				z M15.4,78.2c0.2,0.1,0.4,0.1,0.7,0.2c0,0.2,0,0.4,0.1,0.6c-0.4,0.1-0.7,0.4-0.8,0.8V78.2z M15.4,82.7c0.6,0.7,1.3,1.3,2.2,1.9
				c1.1,0.7,1.9,1,2.7,0.9l0,0h-4.9V82.7z"/>
			<polygon class="st0" points="30.4,66.3 30.4,65.4 29.8,65.4 29.8,65.7 30.3,66.3 			"/>
			<path class="st0" d="M37.7,76.7l-5.9,8.7h-0.6V86h0.2l-1.2,1.4h0.6L32,86h5.2l-0.5,0.6h0.6l0.5-0.6h1.9v-0.6h-1.6l13.4-18.5v-0.1
				h-0.7l-1.5,1.9c0-0.3-0.1-0.7-0.3-1.1c-0.2-0.4-0.4-0.7-0.7-0.8h2v-0.6h-4.9l0.5-0.7l-0.5-0.3l-0.7,1h-1v0.6h0.6l-3.6,5l-3.6-5
				h1.3v-0.6h-1.7l-1-1.4l-0.5,0.3l0.8,1.1h-4.8h-0.9h-0.1l-0.5-0.6l-0.2-0.3l-0.5,0.3l0.5,0.6l0.9,1.1L37.7,76.7z M32.4,85.4V85
				c0.1,0.2,0.3,0.3,0.6,0.4H32.4z M44.8,74.6c0.2-0.8,0.6-1.5,1.2-2.2c0.2-0.3,0.9-0.9,1.9-1.7L44.8,74.6z M45.1,66.8h1.6
				c-0.2,0.2-0.6,0.4-1.2,0.6c-0.6,0.2-1,0.4-1.2,0.6L45.1,66.8z M41,79.8c1.2-0.7,1.8-1.4,2-2.1l0.1-0.1l0,0.1l0.3-0.2l-5.8,7.9
				h-3.1l0.1-0.1c0.3,0,0.6-0.1,0.8-0.3c0.2-0.2,0.4-0.3,0.5-0.3c1-0.3,1.5-0.8,1.5-1.5c0-0.4,0.6-0.9,1.9-1.7
				C40.3,80.7,41,80.2,41,79.8z M38.1,76.3l-0.9-1.1c0.3,0.1,0.6,0.2,0.9,0.3V76.3z M36.4,66.8l1.5,2.1c-0.2-0.1-0.4-0.2-0.6-0.3
				c-0.7-0.8-1.2-1.4-1.5-1.8H36.4z M31.3,66.8h2c-0.2,0.2-0.2,0.5-0.2,0.8c0,0.3,0.1,0.6,0.3,0.9c0.2,0.3,0.4,0.5,0.6,0.8
				c-0.4,0.1-0.7,0.2-0.9,0.5l-2.3-3H31.3z"/>
			<path class="st0" d="M50.9,66.8h0.7v0.1v18.6H51V86h0.6v3.4h0.6V86h5v1.1h0.6V86h3.1v-0.6h-3.1v-6c3.6,0,6-0.3,7.3-1
				c1.9-1,2.9-3,2.9-6c0-2.5-1-4.2-3-5.2c-1.5-0.7-3.7-1.1-6.6-1.1h-5.6h-0.5v-0.1v-0.5v-2.7h-0.6v3v0.3h-0.2h-0.9v0.6H50.9z
				 M58.7,78.9c0.1,0,0.3-0.1,0.4-0.2l0,0c0.3-0.1,0.6-0.3,0.8-0.6c0.4,0.4,0.9,0.7,1.8,0.7C60.9,78.9,59.9,78.9,58.7,78.9z
				 M66.9,70.1c-0.4-0.5-1-0.9-1.8-1.2c-0.1-0.4-0.4-0.8-0.6-1.1C65.7,68.3,66.5,69.1,66.9,70.1z M63.5,78.3
				c0.3-0.3,0.5-0.8,0.6-1.4c1.6-0.5,2.6-1.3,3.2-2.4c-0.4,2.3-1.8,3.7-4.2,4.2L63.5,78.3L63.5,78.3z M59.5,68.9
				c-0.1,0.2-0.2,0.5-0.2,0.7c0,0.1,0,0.2,0.1,0.4h-1c-0.1-0.2-0.1-0.3-0.2-0.4C58.6,69.3,59,69,59.5,68.9z M57.8,70.6h1.4
				c0.8,0,1.5,0.2,2,0.5c0.6,0.4,0.9,0.9,0.9,1.6c0,1.5-0.9,2.3-2.8,2.3h-1.5V70.6z M52.2,72.5c0.1,0.4,0.4,0.6,0.8,0.8
				c0,0.2-0.1,0.4-0.1,0.6c-0.3,0.1-0.6,0.1-0.7,0.2V72.5z M52.2,85.5v-1.3c0.1,0.2,0.2,0.5,0.5,0.7c0.2,0.2,0.4,0.4,0.7,0.6
				C53.2,85.5,52.8,85.5,52.2,85.5z M53.1,81.9c-0.5,0.6-0.8,1-0.9,1.2V79c0.3,0.4,0.9,0.8,1.5,1.4l0,0.3
				C53.8,81,53.6,81.4,53.1,81.9z M57.2,85.5h-1c0.3-0.3,0.6-0.7,1-1.1V85.5z M52.7,66.8h4.4l0,0c-0.7-0.1-1.6,0.2-2.6,0.9
				c-0.9,0.6-1.6,1.2-2.2,1.9v-2.8H52.7z"/>
			<polygon class="st0" points="70.4,74.9 73.1,77.6 72.5,81.3 75.9,79.6 79.2,81.3 79.2,81.2 74.4,73.9 74.2,74.4 			"/>
		</g>
	</g>
	<g>
		<path class="st1" d="M160.3,57H63.2l1.3,2h95.8c0.9,0,1.7,0.8,1.7,1.7v27.5c0,0.9-0.8,1.7-1.7,1.7H85.2l1.3,2h73.8
			c2,0,3.7-1.7,3.7-3.7V60.7C164,58.7,162.3,57,160.3,57z"/>
		<path class="st1" d="M87.2,86.6l0.5,0.3l0.7-0.9H90v-0.6h-1.1l5.7-6.7v-5l-5.5-6.9h0.8v-0.6h-1.3l-1-1.3l-0.5,0.3l0.7,0.9H82
			l-1-1.2l-0.5,0.4l0.7,0.8h-0.8v0.6h1.3l7.7,9.2l-7.7,8.8l0.3,0.5l2.5-2.9c0.1,0.2,0.3,0.4,0.5,0.5c-0.8,0.3-1.2,0.5-1.2,0.5
			c-0.4,0.2-0.5,0.6-0.5,1c0,0.3,0.1,0.6,0.3,0.9h-1.6l0.4,0.6h5.1L87.2,86.6z M85.3,68.4c-0.4,0.1-0.8,0.2-1,0.5l-1.7-2.1h3
			c-0.2,0.3-0.4,0.6-0.4,1C85.2,68,85.2,68.2,85.3,68.4z M91.6,71L91,70.7L90.4,70c0-0.2,0-0.5-0.1-0.7L91.6,71z M86.9,85.5
			c0.7-0.3,1.6-1,2.6-2.1l0.2,0.2l-1.6,1.9H86.9z"/>
		<path class="st1" d="M94.6,85.5H93v0.6h1.6v2.1h0.6v-2.1h5v0.8h0.6v-0.8h0.6v-0.6h-0.6v-6.7l5.6,6.7h-1.1v0.6h1.6l0.7,0.9l0.5-0.3
			l-0.4-0.5h5.6l0.1-0.1h-0.2v-0.5h-1.6c0.2-0.3,0.3-0.6,0.3-0.9c0-0.5-0.2-0.8-0.5-1.1c0,0-0.4-0.2-1.2-0.5
			c0.2-0.1,0.4-0.3,0.5-0.6l2.5,2.9h0.6l0.1-0.1l-8-9.2l6.8-8.2l-0.4-0.5l-1.3,1.6c-0.3-0.3-0.6-0.5-1-0.5c0.1-0.2,0.1-0.3,0.1-0.5
			c0-0.4-0.1-0.7-0.4-1h2.2l-0.4-0.6h-4.1l0.7-0.9l-0.5-0.3l-1,1.3h-1.3v0.6h0.8l-5.5,6.9v-6.9h1.4v-0.6h-1.4v-0.6h-0.6v0.6h-5v-2.1
			h-0.6v2.1h-0.7v0.6h0.7V85.5z M105.9,83.4c1,1.1,1.9,1.8,2.6,2.1h-1.2l-1.6-1.9L105.9,83.4z M105.1,69.4c0,0.2-0.1,0.5-0.1,0.7
			l-0.6,0.7l-0.6,0.2L105.1,69.4z M100.2,85.5H100l0.2-0.4V85.5z M100.2,66.9v0.8l-0.3,0c0-0.2-0.1-0.3-0.2-0.5l0-0.1l-0.1-0.3
			H100.2z M100.2,80.4V84c-0.1-0.2-0.2-0.5-0.4-0.6c-0.1-0.5-0.3-0.9-0.5-1.3C99.7,81.7,100,81.1,100.2,80.4z M95.2,66.9h0.6
			c-0.2,0.2-0.4,0.4-0.6,0.6V66.9z M95.2,81.8c0.1,0.2,0.3,0.4,0.4,0.7c-0.1,0.3-0.2,0.5-0.2,0.8c0,0.2,0.1,0.5,0.2,0.7
			c0.2,0.3,0.3,0.5,0.5,0.8c0.1,0.2,0.2,0.3,0.2,0.3c0,0,0.2,0,0.4,0.1c0,0.1,0,0.2,0.1,0.3h-1.7V81.8z"/>
		<polygon class="st1" points="114.8,65.5 114.3,65.1 113.4,66.3 114.1,66.3 		"/>
		<polygon class="st1" points="114.9,66.9 114.9,66.8 112.8,66.8 112.8,66.9 112.9,66.9 112.8,66.9 113.2,67.4 113.6,66.9 		"/>
		<polygon class="st1" points="113.9,86.1 114.8,87.2 115.3,86.8 114.7,86.1 115.8,86.1 115.8,86 114.1,86 		"/>
		<polygon class="st1" points="79.6,85.5 79.6,86 80.7,86 80,86.8 80.5,87.1 81.5,86 82.4,86 82,85.5 82,85.5 82,85.4 81.7,84.9 
			81.2,85.5 		"/>
		<polygon class="st1" points="134,65.5 134,65.5 134.1,65.5 		"/>
		<path class="st1" d="M112.4,67.4l0.4,0.5l7,8.9l-5.8,8.5l-0.1,0.1h-0.6h0v0.1V86h0.2l-0.1,0.1l-1.1,1.3h0.6l1-1.3l0.1-0.1h1.7h3.5
			l-0.5,0.6h0.6l0.5-0.6h1.9v-0.6h-1.6l13.5-18.6h-0.5v-0.6h-5.6l0.5-0.7l-0.5-0.3l-0.7,1h-1v0.6h0.6l-3.6,5l-3.6-5h1.3v-0.6h-1.7
			l-1-1.4l-0.5,0.3l0.8,1.1h-3.9h-0.8h-1l-0.7-0.9l-0.5,0.3l0.5,0.6l0.4,0.6L112.4,67.4z M114.5,85c0.2,0.2,0.3,0.3,0.6,0.4h-0.6V85
			z M132.9,66.8l-1.5,1.9c0-0.3-0.1-0.7-0.3-1.1c-0.2-0.4-0.4-0.7-0.7-0.8H132.9z M126.9,74.6c0.2-0.8,0.6-1.5,1.2-2.2
			c0.2-0.3,0.9-0.9,1.9-1.7L126.9,74.6z M127.2,66.8h1.6c-0.2,0.2-0.6,0.4-1.2,0.6c-0.6,0.2-1,0.4-1.2,0.6L127.2,66.8z M123,79.8
			c1.2-0.7,1.8-1.4,2-2.1l0.1-0.1l0,0.1l0.3-0.2l-5.8,7.9h-3.1l0.1-0.1c0.3,0,0.6-0.1,0.8-0.3c0.2-0.2,0.4-0.3,0.5-0.3
			c1-0.3,1.5-0.8,1.5-1.5c0-0.4,0.6-0.9,1.9-1.7C122.4,80.7,123,80.2,123,79.8z M120.2,76.3l-0.9-1.1c0.3,0.1,0.6,0.2,0.9,0.3V76.3z
			 M118.5,66.8l1.5,2.1c-0.2-0.1-0.4-0.2-0.6-0.3c-0.7-0.8-1.2-1.4-1.5-1.8H118.5z M115.4,68.5c0.2,0.3,0.4,0.5,0.6,0.8
			c-0.4,0.1-0.7,0.2-0.9,0.5l-1.9-2.4l-0.4-0.5l0,0l0,0h2.2h0.4c-0.2,0.2-0.2,0.5-0.2,0.8C115.1,67.9,115.2,68.2,115.4,68.5z"/>
		<polygon class="st1" points="133.9,65.6 133.4,66.3 133.9,66.3 		"/>
		<path class="st1" d="M143.7,65.7l0.3,0.5l5.6-3.4l0.6,0.7l0.5-0.3l-0.6-0.7l0.6-0.3l-0.3-0.5l-0.6,0.4l-1.1-1.4l0.7-0.4l-0.3-0.5
			l-0.8,0.4l-0.3-0.4l-0.5,0.3l0.2,0.3l-3.1,1.6l-4.5-2.4l-0.3,0.5l0.9,0.5l-1.1,1.3l-0.3-0.2l-0.3,0.5l5.1,3.2L143.7,65.7z
			 M148.2,60.9l1.1,1.4l-1.1,0.7c0.1-0.8-0.2-1.3-0.9-1.6L148.2,60.9z M142,62.4c-0.3,0.2-0.5,0.3-0.8,0.5l-1.1-0.7l1.2-1.4l0.7,0.4
			l-0.3,0.1L142,62.4z M143.9,64.6c0.3-0.1,0.5-0.3,0.6-0.3l0.2,0c0.1,0.2,0.2,0.4,0.4,0.6l-0.4,0.2L143.9,64.6z"/>
		<path class="st1" d="M133.7,66.8h0.2v18.6h-1.2V86h1.2v1.4h0.6V86h5l-0.6,0.8l0.5,0.3l0.9-1.1h1.2v-0.6h-0.7l8.6-10.7v10.7h-0.6
			V86h0.6v2h0.6v-2h4.9v0.6h0.6V86h0.6v-0.6h-0.6V66.8h1v-0.6h-1V65h-0.6v1.3H150l1.9-2.3l-0.5-0.3l-2.2,2.7h-1.1v0.6h0.6l-8.6,10.5
			V66.8h0.5v-0.6h-0.5v-2.8h-0.6v2.8h-4.8h-0.2v-0.8h-0.4H134h-0.1v0.1v0.7h-0.5h-0.2v0.6H133.7z M153.5,69.3c0.1,0.5,0.1,1,0.1,1.6
			c0,0.6-0.1,1.8-0.3,3.5c0-0.8-0.2-2.2-0.5-4.2C153,70.1,153.2,69.8,153.5,69.3z M150,78.6c0.1,1.2,0.4,2.8,1.1,4.7
			c-0.3,0.4-0.7,0.7-1.1,0.9V78.6z M134.5,84.4v-3c0.3,0.4,0.7,0.9,1.2,1.5l-0.1,0l0.1,0C135.1,83.4,134.6,83.9,134.5,84.4z
			 M145.6,78.5l-1.9,2.4c-0.1-0.3-0.2-0.5-0.4-0.7C143.5,80,144.3,79.4,145.6,78.5z M139.7,78.8l3-3.7c-0.4,0.8-0.9,1.6-1.3,2.4
			c-0.5,0.9-1,1.6-1.6,2.2l-0.5,0.1C139.5,79.5,139.6,79.2,139.7,78.8z M139.5,66.8v1.8c-0.4,0.2-0.7,0.5-0.8,0.9
			c0-0.7-0.1-1.2-0.2-1.6c-0.2-0.6-0.5-1-1-1.1H139.5z M138.4,82.3c0.1,0.1,0,0.1,0,0.2c0,0.3,0.2,0.7,0.4,1c-0.4,0.2-0.7,0.3-1,0.3
			l-0.3,0l-0.3-0.4C137.8,83.2,138.2,82.8,138.4,82.3z M134.7,66.8h1.8h0h0l-0.2,0l0.1,0c-0.5,0-0.9,0.3-1.2,0.8c-0.3,0-0.4,0-0.4,0
			s-0.1,0.1-0.3,0.3v-1.1H134.7z"/>
		<polygon class="st1" points="81.3,74.9 77.5,74.4 75.9,70.9 74.4,73.9 79.2,81 78.6,77.6 		"/>
	</g>
</g>
</svg>
