<?xml version="1.0" encoding="UTF-8"?>
<svg width="27px" height="21px" viewBox="0 0 27 21" version="1.1" xmlns="http://www.w3.org/2000/svg" xmlns:xlink="http://www.w3.org/1999/xlink">
    <!-- Generator: Sketch 52.2 (67145) - http://www.bohemiancoding.com/sketch -->
    <title>baseline-email-24px</title>
    <desc>Created with Sketch.</desc>
    <g id="Page-1" stroke="none" stroke-width="1" fill="none" fill-rule="evenodd">
        <g id="Main_page" transform="translate(-103.000000, -7248.000000)">
            <g id="Group-3" transform="translate(100.000000, 7242.000000)">
                <g id="baseline-email-24px">
                    <path d="M27.3,6 L5.7,6 C4.215,6 3.0135,7.18125 3.0135,8.625 L3,24.375 C3,25.81875 4.215,27 5.7,27 L27.3,27 C28.785,27 30,25.81875 30,24.375 L30,8.625 C30,7.18125 28.785,6 27.3,6 Z M27.3,11.25 L16.5,17.8125 L5.7,11.25 L5.7,8.625 L16.5,15.1875 L27.3,8.625 L27.3,11.25 Z" id="Shape" fill="#E23207" fill-rule="nonzero"></path>
                    <polygon id="Path" points="0 0 32 0 32 32 0 32"></polygon>
                </g>
            </g>
        </g>
    </g>
</svg>