<?xml version="1.0" encoding="UTF-8"?>
<svg width="20px" height="20px" viewBox="0 0 20 20" version="1.1" xmlns="http://www.w3.org/2000/svg" xmlns:xlink="http://www.w3.org/1999/xlink">
    <!-- Generator: Sketch 52.2 (67145) - http://www.bohemiancoding.com/sketch -->
    <title>Facebook</title>
    <desc>Created with Sketch.</desc>
    <g id="Page-1" stroke="none" stroke-width="1" fill="none" fill-rule="evenodd">
        <g id="Main_page" transform="translate(-1297.000000, -7683.000000)" fill="#8B8C8F">
            <g id="soc_ico-copy" transform="translate(1297.000000, 7683.000000)">
                <path d="M10.001317,0 C4.47780851,0 0,4.47780851 0,10.001317 C0,15.5221915 4.47780851,20 10.001317,20 C15.5221915,20 20,15.5221915 20,10.001317 C20,4.47780851 15.5221915,0 10.001317,0 L10.001317,0 Z M15,14.3754054 C15,14.6781081 14.8625,15 14.585,15 L12.25,15 L12.25,11.2162162 L13.4375,11.2162162 L13.6175,9.59459459 L12.25,9.59459459 L12.25,8.62675676 C12.25,8.19432432 12.3575,7.97297297 12.9325,7.97297297 L13.75,7.97297297 L13.75,6.55918919 C13.5,6.54027027 13.1125,6.49972973 12.605,6.49972973 C11.55,6.49972973 10.75,7.19702703 10.75,8.47810811 L10.75,9.59459459 L9.5,9.59459459 L9.5,11.2162162 L10.75,11.2162162 L10.75,15 L6.42,15 C6.14,15 6,14.6781081 6,14.3754054 L6,5.54837838 C6,5.24567568 6.14,5 6.42,5 L14.585,5 C14.8625,5 15,5.24567568 15,5.54837838 L15,14.3754054 L15,14.3754054 Z" id="Facebook"></path>
            </g>
        </g>
    </g>
</svg>