<?xml version="1.0" encoding="UTF-8"?>
<svg width="20px" height="20px" viewBox="0 0 20 20" version="1.1" xmlns="http://www.w3.org/2000/svg" xmlns:xlink="http://www.w3.org/1999/xlink">
    <!-- Generator: Sketch 52.2 (67145) - http://www.bohemiancoding.com/sketch -->
    <title>Facebook</title>
    <desc>Created with Sketch.</desc>
    <g id="Page-1" stroke="none" stroke-width="1" fill="none" fill-rule="evenodd">
        <g id="Main_page" transform="translate(-1296.000000, -7647.000000)" fill="#FFFFFF">
            <g id="soc_ico" transform="translate(1296.000000, 7647.000000)">
                <path d="M10.001317,0 C4.47780851,0 0,4.47780851 0,10.001317 C0,15.5221915 4.47780851,20 10.001317,20 C15.5221915,20 20,15.5221915 20,10.001317 C20,4.47780851 15.5221915,0 10.001317,0 L10.001317,0 Z M14.8663242,14.228895 C14.8663242,14.5239036 14.721454,14.8376136 14.4290794,14.8376136 L11.9689187,14.8376136 L11.9689187,11.1500066 L13.2200711,11.1500066 L13.4097195,9.56960358 L11.9689187,9.56960358 L11.9689187,8.62636639 C11.9689187,8.20492559 12.082181,7.98920058 12.6880021,7.98920058 L13.5493217,7.98920058 L13.5493217,6.61135256 C13.2859212,6.59291453 12.8776505,6.55340445 12.3429475,6.55340445 C11.2313973,6.55340445 10.3885157,7.23297774 10.3885157,8.48149611 L10.3885157,9.56960358 L9.07151324,9.56960358 L9.07151324,11.1500066 L10.3885157,11.1500066 L10.3885157,14.8376136 L5.82641907,14.8376136 C5.53141051,14.8376136 5.38390623,14.5239036 5.38390623,14.228895 L5.38390623,5.62623469 C5.38390623,5.33122613 5.53141051,5.09179507 5.82641907,5.09179507 L14.4290794,5.09179507 C14.721454,5.09179507 14.8663242,5.33122613 14.8663242,5.62623469 L14.8663242,14.228895 L14.8663242,14.228895 Z" id="Facebook"></path>
            </g>
        </g>
    </g>
</svg>