<?xml version="1.0" encoding="utf-8"?>
<!-- Generator: Adobe Illustrator 22.1.0, SVG Export Plug-In . SVG Version: 6.00 Build 0)  -->
<svg version="1.1" id="Слой_1" xmlns="http://www.w3.org/2000/svg" xmlns:xlink="http://www.w3.org/1999/xlink" x="0px" y="0px"
	 viewBox="0 0 820 312" style="enable-background:new 0 0 820 312;" xml:space="preserve">
<style type="text/css">
	.st0{fill:#FFFFFF;}
	.st1{enable-background:new    ;}
	.st2{fill:none;stroke:#FFFFFF;stroke-width:3.5;stroke-linecap:round;stroke-linejoin:round;}
</style>
<title>Fb_cover</title>
<desc>Created with Sketch.</desc>
<g id="Fb_cover">
	<g id="Group" transform="translate(126.000000, 96.000000)">
		<polygon id="Path" class="st0" points="26.5,25.5 35,25.5 35,85 26.5,85 		"/>
		<polygon id="Path_1_" class="st0" points="76.8,33 56.2,33 56.2,25.5 105.8,25.5 105.8,33 85.4,33 85.4,85 76.8,85 		"/>
		<path id="Shape" class="st0" d="M168.7,31c4.5,3.8,6.8,8.8,6.8,15.3s-2.3,11.5-6.8,15.2c-4.5,3.7-10.6,5.5-18.4,5.5h-14.6v18h-8.6
			V25.5h23.4C158.4,25.5,164.4,27.2,168.7,31z M162.7,56.2c2.8-2.2,4.3-5.5,4.3-10s-1.5-7.5-4.3-10c-2.8-2.2-7-3.5-12.3-3.5h-14.6
			v26.8h14.6C155.6,59.5,159.9,58.5,162.7,56.2z"/>
		<path id="Shape_1_" class="st0" d="M247.1,80.8c-4.8-2.8-8.8-6.5-11.6-11.3s-4.3-10-4.3-15.8s1.5-11,4.3-15.8s6.5-8.5,11.6-11.3
			c4.8-2.8,10.3-4,16.4-4c6,0,11.6,1.3,16.4,4c4.8,2.8,8.8,6.5,11.6,11c2.8,4.5,4.3,10,4.3,16s-1.5,11.3-4.3,16
			c-2.8,4.8-6.5,8.5-11.6,11c-5,2.5-10.3,4-16.4,4C257.4,85,251.9,83.5,247.1,80.8z M277.3,77.3c4.3-2.3,7.6-5.5,9.8-9.8
			c2.5-4,3.5-8.8,3.5-13.8s-1.3-9.8-3.5-13.8c-2.5-4-5.8-7.3-9.8-9.8c-4.3-2.3-8.8-3.5-14.1-3.5c-5.3,0-9.8,1.3-14.1,3.5
			s-7.6,5.5-9.8,9.8c-2.5,4-3.5,8.8-3.5,13.8s1.3,9.8,3.5,13.8c2.5,4,5.8,7.3,9.8,9.8c4.3,2.3,8.8,3.5,14.1,3.5
			S273.3,79.8,277.3,77.3z"/>
		<polygon id="Path_2_" class="st0" points="412.3,23.3 391.4,84.5 386.6,84.5 367.5,29.5 348.3,84.5 343.5,84.5 322.6,23.3 
			327.4,23.3 346.3,78.3 365.7,23.3 370,23.3 389.1,78.5 408,23.3 		"/>
		<polygon id="Path_3_" class="st0" points="488.4,80.5 488.4,84.5 445.8,84.5 445.8,23.3 487.1,23.3 487.1,27.3 450.3,27.3 
			450.3,51.5 483.3,51.5 483.3,55.5 450.3,55.5 450.3,80.5 		"/>
		<path id="Shape_2_" class="st0" d="M568.2,84.5L553.6,64c-2.3,0.3-4.3,0.5-6,0.5H530v20h-4.5V23.3h22.2c7.8,0,13.9,1.8,18.1,5.5
			c4.5,3.8,6.5,8.8,6.5,15.3c0,4.8-1.3,9-3.8,12.3s-6,5.5-10.8,7L573,84.8h-4.8V84.5z M547.3,60.5c6.5,0,11.6-1.5,15.1-4.3
			c3.5-3,5.3-7,5.3-12.3s-1.8-9.5-5.3-12.3c-3.5-3-8.6-4.3-15.1-4.3h-17.6v33.3h17.6V60.5z"/>
		<g class="st1">
			<path class="st0" d="M127.2,125.5c-0.7-0.4-1.3-1-1.7-1.7c-0.4-0.7-0.6-1.6-0.6-2.5s0.2-1.8,0.6-2.5s1-1.3,1.7-1.7
				s1.6-0.6,2.5-0.6s1.7,0.2,2.5,0.6c0.7,0.4,1.3,1,1.7,1.7s0.6,1.6,0.6,2.5s-0.2,1.8-0.6,2.5c-0.4,0.7-1,1.3-1.7,1.7
				c-0.7,0.4-1.6,0.6-2.5,0.6C128.7,126.1,127.9,125.9,127.2,125.5z M131.5,124.5c0.5-0.3,1-0.7,1.3-1.3c0.3-0.6,0.5-1.2,0.5-1.9
				c0-0.7-0.2-1.4-0.5-1.9c-0.3-0.6-0.7-1-1.3-1.3c-0.5-0.3-1.1-0.5-1.8-0.5s-1.3,0.2-1.8,0.5s-1,0.7-1.3,1.3
				c-0.3,0.6-0.5,1.2-0.5,1.9c0,0.7,0.2,1.4,0.5,1.9c0.3,0.6,0.7,1,1.3,1.3s1.1,0.5,1.8,0.5C130.3,125,130.9,124.8,131.5,124.5z"/>
			<path class="st0" d="M154.3,116.5v9.5h-1.2v-1.7c-0.3,0.6-0.8,1-1.4,1.3c-0.6,0.3-1.3,0.5-2,0.5c-1.2,0-2.2-0.3-2.9-1
				s-1.1-1.7-1.1-3v-5.5h1.3v5.4c0,1,0.2,1.8,0.7,2.3s1.2,0.8,2.1,0.8c1,0,1.8-0.3,2.4-0.9c0.6-0.6,0.9-1.4,0.9-2.5v-5h1.2V116.5z"
				/>
			<path class="st0" d="M171.5,125.4c-0.2,0.2-0.5,0.4-0.9,0.5s-0.7,0.2-1.1,0.2c-0.9,0-1.6-0.2-2.1-0.7s-0.7-1.2-0.7-2v-5.7H165
				v-1.1h1.7v-2.1h1.3v2.1h2.9v1.1H168v5.7c0,0.6,0.1,1,0.4,1.3s0.7,0.4,1.2,0.4c0.3,0,0.5,0,0.8-0.1s0.5-0.2,0.6-0.4L171.5,125.4z"
				/>
			<path class="st0" d="M182.9,125.8c-0.7-0.2-1.3-0.5-1.6-0.8l0.6-1c0.4,0.3,0.9,0.6,1.5,0.8s1.2,0.3,1.9,0.3
				c0.9,0,1.5-0.1,1.9-0.4s0.6-0.7,0.6-1.1c0-0.3-0.1-0.6-0.3-0.8c-0.2-0.2-0.5-0.3-0.9-0.5c-0.3-0.1-0.8-0.2-1.4-0.3
				c-0.8-0.1-1.4-0.3-1.9-0.4s-0.9-0.4-1.2-0.8s-0.5-0.9-0.5-1.5c0-0.8,0.3-1.4,1-1.9s1.6-0.8,2.8-0.8c0.6,0,1.2,0.1,1.8,0.2
				s1.1,0.4,1.5,0.6l-0.6,1c-0.8-0.5-1.7-0.8-2.8-0.8c-0.8,0-1.4,0.1-1.8,0.4s-0.6,0.7-0.6,1.1s0.1,0.6,0.4,0.9
				c0.2,0.2,0.5,0.4,0.9,0.5c0.3,0.1,0.8,0.2,1.4,0.3c0.8,0.1,1.4,0.3,1.8,0.4c0.5,0.1,0.8,0.4,1.2,0.7s0.5,0.8,0.5,1.4
				c0,0.8-0.3,1.5-1,2s-1.6,0.7-2.9,0.7C184.3,126.1,183.6,126,182.9,125.8z"/>
			<path class="st0" d="M201.4,125.5c-0.7-0.4-1.3-1-1.7-1.7s-0.6-1.6-0.6-2.5s0.2-1.8,0.6-2.5c0.4-0.7,1-1.3,1.7-1.7
				s1.6-0.6,2.5-0.6s1.7,0.2,2.5,0.6s1.3,1,1.7,1.7s0.6,1.6,0.6,2.5s-0.2,1.8-0.6,2.5c-0.4,0.7-1,1.3-1.7,1.7s-1.6,0.6-2.5,0.6
				S202.1,125.9,201.4,125.5z M205.7,124.5c0.5-0.3,1-0.7,1.3-1.3c0.3-0.6,0.5-1.2,0.5-1.9c0-0.7-0.2-1.4-0.5-1.9
				c-0.3-0.6-0.7-1-1.3-1.3c-0.5-0.3-1.1-0.5-1.8-0.5s-1.3,0.2-1.8,0.5s-1,0.7-1.3,1.3c-0.3,0.6-0.5,1.2-0.5,1.9
				c0,0.7,0.2,1.4,0.5,1.9c0.3,0.6,0.7,1,1.3,1.3c0.5,0.3,1.1,0.5,1.8,0.5C204.5,125,205.1,124.8,205.7,124.5z"/>
			<path class="st0" d="M228.5,116.5v9.5h-1.2v-1.7c-0.3,0.6-0.8,1-1.4,1.3c-0.6,0.3-1.3,0.5-2,0.5c-1.2,0-2.2-0.3-2.9-1
				s-1.1-1.7-1.1-3v-5.5h1.3v5.4c0,1,0.2,1.8,0.7,2.3s1.2,0.8,2.1,0.8c1,0,1.8-0.3,2.4-0.9c0.6-0.6,0.9-1.4,0.9-2.5v-5h1.2V116.5z"
				/>
			<path class="st0" d="M243.3,116.9c0.6-0.3,1.3-0.5,2.2-0.5v1.2h-0.3c-1,0-1.8,0.3-2.3,0.9c-0.6,0.6-0.8,1.5-0.8,2.6v4.8h-1.3
				v-9.5h1.2v1.9C242.3,117.7,242.7,117.3,243.3,116.9z"/>
			<path class="st0" d="M257.8,125.5c-0.7-0.4-1.3-1-1.7-1.7c-0.4-0.7-0.6-1.6-0.6-2.5s0.2-1.8,0.6-2.5c0.4-0.7,1-1.3,1.7-1.7
				c0.7-0.4,1.6-0.6,2.5-0.6c0.8,0,1.5,0.2,2.2,0.5c0.6,0.3,1.1,0.8,1.5,1.4l-1,0.6c-0.3-0.5-0.7-0.8-1.2-1.1
				c-0.5-0.2-1-0.4-1.6-0.4c-0.7,0-1.3,0.2-1.8,0.5s-1,0.7-1.3,1.3c-0.3,0.6-0.5,1.2-0.5,1.9c0,0.7,0.2,1.4,0.5,1.9
				c0.3,0.6,0.7,1,1.3,1.3s1.2,0.5,1.8,0.5c0.6,0,1.1-0.1,1.6-0.3c0.5-0.2,0.9-0.6,1.2-1l1,0.6c-0.4,0.6-0.9,1.1-1.5,1.4
				s-1.4,0.5-2.2,0.5C259.4,126.1,258.6,125.9,257.8,125.5z"/>
			<path class="st0" d="M283.3,121.7h-7.9c0.1,1,0.4,1.8,1.1,2.4s1.5,0.9,2.6,0.9c0.6,0,1.1-0.1,1.6-0.3c0.5-0.2,0.9-0.5,1.3-0.9
				l0.7,0.8c-0.4,0.5-0.9,0.9-1.6,1.2s-1.3,0.4-2.1,0.4c-1,0-1.8-0.2-2.6-0.6s-1.3-1-1.8-1.7c-0.4-0.7-0.6-1.6-0.6-2.5
				s0.2-1.8,0.6-2.5s1-1.3,1.7-1.7s1.5-0.6,2.4-0.6s1.7,0.2,2.4,0.6c0.7,0.4,1.2,1,1.6,1.7s0.6,1.6,0.6,2.5L283.3,121.7z
				 M276.4,118.4c-0.6,0.6-1,1.3-1.1,2.3h6.7c-0.1-0.9-0.4-1.7-1.1-2.3c-0.6-0.6-1.4-0.9-2.3-0.9
				C277.8,117.6,277.1,117.8,276.4,118.4z"/>
			<path class="st0" d="M308.3,112.6h1.2v16.8h-1.2V112.6z"/>
			<path class="st0" d="M335.7,125.8c-0.7-0.2-1.3-0.5-1.6-0.8l0.6-1c0.4,0.3,0.9,0.6,1.5,0.8s1.2,0.3,1.9,0.3
				c0.9,0,1.5-0.1,1.9-0.4s0.6-0.7,0.6-1.1c0-0.3-0.1-0.6-0.3-0.8c-0.2-0.2-0.5-0.3-0.9-0.5c-0.3-0.1-0.8-0.2-1.4-0.3
				c-0.8-0.1-1.4-0.3-1.9-0.4s-0.9-0.4-1.2-0.8c-0.3-0.4-0.5-0.9-0.5-1.5c0-0.8,0.3-1.4,1-1.9s1.6-0.8,2.8-0.8
				c0.6,0,1.2,0.1,1.8,0.2c0.6,0.2,1.1,0.4,1.5,0.6l-0.6,1c-0.8-0.5-1.7-0.8-2.8-0.8c-0.8,0-1.4,0.1-1.8,0.4s-0.6,0.7-0.6,1.1
				s0.1,0.6,0.4,0.9c0.2,0.2,0.5,0.4,0.9,0.5c0.3,0.1,0.8,0.2,1.4,0.3c0.8,0.1,1.4,0.3,1.8,0.4c0.5,0.1,0.8,0.4,1.2,0.7
				c0.3,0.3,0.5,0.8,0.5,1.4c0,0.8-0.3,1.5-1,2s-1.6,0.7-2.9,0.7C337.1,126.1,336.4,126,335.7,125.8z"/>
			<path class="st0" d="M361.1,121.7h-7.9c0.1,1,0.5,1.8,1.1,2.4c0.7,0.6,1.5,0.9,2.6,0.9c0.6,0,1.1-0.1,1.6-0.3
				c0.5-0.2,0.9-0.5,1.3-0.9l0.7,0.8c-0.4,0.5-0.9,0.9-1.6,1.2c-0.6,0.3-1.3,0.4-2.1,0.4c-1,0-1.8-0.2-2.6-0.6s-1.3-1-1.8-1.7
				c-0.4-0.7-0.6-1.6-0.6-2.5s0.2-1.8,0.6-2.5s1-1.3,1.7-1.7c0.7-0.4,1.5-0.6,2.4-0.6s1.7,0.2,2.4,0.6c0.7,0.4,1.2,1,1.6,1.7
				s0.6,1.6,0.6,2.5L361.1,121.7z M354.2,118.4c-0.6,0.6-1,1.3-1.1,2.3h6.7c-0.1-0.9-0.4-1.7-1.1-2.3c-0.6-0.6-1.4-0.9-2.3-0.9
				C355.6,117.6,354.8,117.8,354.2,118.4z"/>
			<path class="st0" d="M373.8,125.5c-0.7-0.4-1.3-1-1.7-1.7c-0.4-0.7-0.6-1.6-0.6-2.5s0.2-1.8,0.6-2.5s1-1.3,1.7-1.7
				c0.7-0.4,1.6-0.6,2.5-0.6c0.8,0,1.5,0.2,2.2,0.5c0.6,0.3,1.1,0.8,1.5,1.4l-1,0.6c-0.3-0.5-0.7-0.8-1.2-1.1
				c-0.5-0.2-1-0.4-1.6-0.4c-0.7,0-1.3,0.2-1.8,0.5s-1,0.7-1.3,1.3c-0.3,0.6-0.5,1.2-0.5,1.9c0,0.7,0.2,1.4,0.5,1.9
				c0.3,0.6,0.7,1,1.3,1.3s1.2,0.5,1.8,0.5c0.6,0,1.1-0.1,1.6-0.3c0.5-0.2,0.9-0.6,1.2-1l1,0.6c-0.4,0.6-0.9,1.1-1.5,1.4
				s-1.4,0.5-2.2,0.5C375.4,126.1,374.5,125.9,373.8,125.5z"/>
			<path class="st0" d="M399.7,116.5v9.5h-1.2v-1.7c-0.3,0.6-0.8,1-1.4,1.3s-1.3,0.5-2,0.5c-1.2,0-2.2-0.3-2.9-1
				c-0.7-0.7-1.1-1.7-1.1-3v-5.5h1.3v5.4c0,1,0.2,1.8,0.7,2.3s1.2,0.8,2.1,0.8c1,0,1.8-0.3,2.4-0.9s0.9-1.4,0.9-2.5v-5h1.2V116.5z"
				/>
			<path class="st0" d="M414.6,116.9c0.6-0.3,1.3-0.5,2.2-0.5v1.2h-0.3c-1,0-1.8,0.3-2.3,0.9c-0.6,0.6-0.8,1.5-0.8,2.6v4.8H412v-9.5
				h1.2v1.9C413.5,117.7,414,117.3,414.6,116.9z"/>
			<path class="st0" d="M427.7,114.2c-0.2-0.2-0.3-0.4-0.3-0.6s0.1-0.5,0.3-0.6c0.2-0.2,0.4-0.3,0.7-0.3c0.3,0,0.5,0.1,0.7,0.3
				c0.2,0.2,0.3,0.4,0.3,0.6c0,0.3-0.1,0.5-0.3,0.7c-0.2,0.2-0.4,0.3-0.7,0.3C428.1,114.5,427.9,114.4,427.7,114.2z M427.7,116.5
				h1.3v9.5h-1.3V116.5z"/>
			<path class="st0" d="M446.3,125.4c-0.2,0.2-0.5,0.4-0.9,0.5s-0.7,0.2-1.1,0.2c-0.9,0-1.6-0.2-2.1-0.7s-0.7-1.2-0.7-2v-5.7h-1.7
				v-1.1h1.7v-2.1h1.3v2.1h2.9v1.1h-2.9v5.7c0,0.6,0.1,1,0.4,1.3s0.7,0.4,1.2,0.4c0.3,0,0.5,0,0.8-0.1c0.2-0.1,0.5-0.2,0.6-0.4
				L446.3,125.4z"/>
			<path class="st0" d="M465,116.5l-4.7,10.6c-0.4,0.9-0.8,1.5-1.3,1.9s-1.1,0.6-1.8,0.6c-0.5,0-0.9-0.1-1.3-0.2
				c-0.4-0.1-0.7-0.4-1-0.6l0.6-1c0.5,0.5,1.1,0.7,1.7,0.7c0.4,0,0.8-0.1,1.1-0.4c0.3-0.2,0.6-0.6,0.9-1.2l0.4-0.9l-4.2-9.5h1.3
				l3.6,8l3.6-8C463.9,116.5,465,116.5,465,116.5z"/>
			<path class="st0" d="M489.2,112.6h1.2v16.8h-1.2V112.6z"/>
			<path class="st0" d="M524.2,116.5L520,126h-1.3l-4.2-9.5h1.3l3.5,8.1l3.6-8.1H524.2z"/>
			<path class="st0" d="M535.8,125.5c-0.7-0.4-1.3-1-1.7-1.7s-0.6-1.6-0.6-2.5s0.2-1.8,0.6-2.5c0.4-0.7,1-1.3,1.7-1.7
				c0.7-0.4,1.6-0.6,2.5-0.6s1.7,0.2,2.5,0.6c0.7,0.4,1.3,1,1.7,1.7s0.6,1.6,0.6,2.5s-0.2,1.8-0.6,2.5c-0.4,0.7-1,1.3-1.7,1.7
				c-0.7,0.4-1.6,0.6-2.5,0.6S536.6,125.9,535.8,125.5z M540.1,124.5c0.5-0.3,1-0.7,1.3-1.3c0.3-0.6,0.5-1.2,0.5-1.9
				c0-0.7-0.2-1.4-0.5-1.9c-0.3-0.6-0.7-1-1.3-1.3c-0.5-0.3-1.1-0.5-1.8-0.5s-1.3,0.2-1.8,0.5s-1,0.7-1.3,1.3
				c-0.3,0.6-0.5,1.2-0.5,1.9c0,0.7,0.2,1.4,0.5,1.9c0.3,0.6,0.7,1,1.3,1.3c0.5,0.3,1.1,0.5,1.8,0.5S539.6,124.8,540.1,124.5z"/>
			<path class="st0" d="M554.4,114.2c-0.2-0.2-0.3-0.4-0.3-0.6s0.1-0.5,0.3-0.6s0.4-0.3,0.7-0.3s0.5,0.1,0.7,0.3s0.3,0.4,0.3,0.6
				c0,0.3-0.1,0.5-0.3,0.7s-0.4,0.3-0.7,0.3S554.6,114.4,554.4,114.2z M554.4,116.5h1.3v9.5h-1.3V116.5z"/>
		</g>
		<g class="st1">
			<path class="st0" d="M575.3,117.1c0.7,0.4,1.3,1,1.7,1.7s0.6,1.6,0.6,2.5s-0.2,1.8-0.6,2.5s-1,1.3-1.7,1.7s-1.5,0.6-2.4,0.6
				c-0.8,0-1.5-0.2-2.1-0.5s-1.1-0.8-1.5-1.4v5.3H568v-13h1.2v1.9c0.4-0.6,0.9-1.1,1.5-1.4s1.3-0.5,2.1-0.5
				C573.8,116.5,574.6,116.7,575.3,117.1z M574.6,124.5c0.5-0.3,1-0.7,1.3-1.3c0.3-0.6,0.5-1.2,0.5-1.9c0-0.7-0.2-1.4-0.5-1.9
				c-0.3-0.6-0.7-1-1.3-1.3c-0.5-0.3-1.1-0.5-1.8-0.5s-1.3,0.2-1.8,0.5s-1,0.7-1.3,1.3c-0.3,0.6-0.5,1.2-0.5,1.9
				c0,0.7,0.2,1.4,0.5,1.9c0.3,0.6,0.7,1,1.3,1.3s1.1,0.5,1.8,0.5S574.1,124.8,574.6,124.5z"/>
		</g>
		<polyline id="Path-2" class="st2" points="200.8,61.6 200.8,0 0,0 0,122.2 100.4,122.2 		"/>
	</g>
</g>
</svg>
