<?xml version="1.0" encoding="UTF-8"?>
<svg width="20px" height="20px" viewBox="0 0 20 20" version="1.1" xmlns="http://www.w3.org/2000/svg" xmlns:xlink="http://www.w3.org/1999/xlink">
    <!-- Generator: Sketch 52.2 (67145) - http://www.bohemiancoding.com/sketch -->
    <title>Linkedin</title>
    <desc>Created with Sketch.</desc>
    <g id="Page-1" stroke="none" stroke-width="1" fill="none" fill-rule="evenodd">
        <g id="Main_page" transform="translate(-1328.000000, -7683.000000)" fill="#FFFFFF">
            <g id="soc_ico-copy" transform="translate(1297.000000, 7683.000000)">
                <path d="M41.001317,0 C35.4778085,0 31,4.47780851 31,10.001317 C31,15.5221915 35.4778085,20 41.001317,20 C46.5221915,20 51,15.5221915 51,10.001317 C51,4.47780851 46.5221915,0 41.001317,0 L41.001317,0 Z M36.6473067,8.39457395 L38.4911102,8.39457395 L38.4911102,14.4527855 L36.6473067,14.4527855 L36.6473067,8.39457395 Z M37.4612143,7.86777295 L37.4480443,7.86777295 C36.7605689,7.86777295 36.3180561,7.34360595 36.3180561,6.76149085 C36.3180561,6.16883972 36.773739,5.6868168 37.4743843,5.6868168 C38.1723956,5.6868168 38.6017384,6.18464375 38.6175425,6.77729488 C38.6175425,7.35940998 38.1723956,7.86777295 37.4612143,7.86777295 L37.4612143,7.86777295 Z M46.1297247,14.4527855 L43.7591202,14.4527855 L43.7591202,11.3841696 C43.7591202,10.5702621 43.4878177,10.017121 42.7476623,10.017121 C42.1839852,10.017121 41.8573686,10.3911497 41.7098643,10.7520084 C41.6545502,10.8810747 41.6519162,11.060187 41.6519162,11.2419334 L41.6519162,14.4527855 L39.6131964,14.4527855 C39.6131964,14.4527855 39.6395364,8.92137495 39.6131964,8.39457395 L41.6519162,8.39457395 L41.6519162,9.42973792 C41.9153167,9.01883314 42.5474779,8.43145002 43.632688,8.43145002 C44.9786646,8.43145002 46.1297247,9.29276966 46.1297247,11.1523772 L46.1297247,14.4527855 L46.1297247,14.4527855 Z" id="Linkedin"></path>
            </g>
        </g>
    </g>
</svg>