<?xml version="1.0" encoding="UTF-8"?>
<svg width="19px" height="27px" viewBox="0 0 19 27" version="1.1" xmlns="http://www.w3.org/2000/svg" xmlns:xlink="http://www.w3.org/1999/xlink">
    <!-- Generator: Sketch 52.2 (67145) - http://www.bohemiancoding.com/sketch -->
    <title>baseline-location_on-24px</title>
    <desc>Created with Sketch.</desc>
    <g id="Page-1" stroke="none" stroke-width="1" fill="none" fill-rule="evenodd">
        <g id="Main_page" transform="translate(-104.000000, -7079.000000)">
            <g id="Group-5" transform="translate(97.000000, 7076.000000)">
                <g id="baseline-location_on-24px">
                    <path d="M16.5,3 C11.2478571,3 7,7.2255 7,12.45 C7,19.5375 16.5,30 16.5,30 C16.5,30 26,19.5375 26,12.45 C26,7.2255 21.7521429,3 16.5,3 Z M16.5,15.825 C14.6271429,15.825 13.1071429,14.313 13.1071429,12.45 C13.1071429,10.587 14.6271429,9.075 16.5,9.075 C18.3728571,9.075 19.8928571,10.587 19.8928571,12.45 C19.8928571,14.313 18.3728571,15.825 16.5,15.825 Z" id="Shape" fill="#E23207" fill-rule="nonzero"></path>
                    <polygon id="Path" points="0 0 32 0 32 32 0 32"></polygon>
                </g>
            </g>
        </g>
    </g>
</svg>