<svg width="143" height="35" viewBox="0 0 143 35" fill="none" xmlns="http://www.w3.org/2000/svg">
<path fill-rule="evenodd" clip-rule="evenodd" d="M59.6131 20.6923C60.2956 21.8615 61.2883 22.7846 62.4672 23.4615C63.646 24.1385 65.011 24.5077 66.5 24.4462C67.9891 24.4462 69.292 24.0769 70.5328 23.4615C71.7737 22.8462 72.7044 21.9231 73.3869 20.7538C74.0693 19.5846 74.4416 18.2923 74.4416 16.8154C74.4416 15.3385 74.0693 13.9846 73.3869 12.8769C72.7044 11.7692 71.7117 10.8462 70.5328 10.1692C69.354 9.49231 67.9891 9.18462 66.5 9.18462C65.011 9.18462 63.646 9.49231 62.4672 10.1692C61.2263 10.8462 60.2956 11.7692 59.6131 12.9385C58.9307 14.1077 58.5584 15.4 58.5584 16.8154C58.5584 18.2308 58.9307 19.5231 59.6131 20.6923ZM72.3321 20.2C71.7737 21.2462 70.9672 22.0462 69.9124 22.6C68.9197 23.2154 67.7409 23.4615 66.438 23.4615C65.135 23.4615 64.0182 23.1538 62.9635 22.6C61.9708 21.9846 61.1642 21.1846 60.5438 20.2C59.9854 19.2154 59.6752 18.0462 59.6752 16.8154C59.6752 15.5846 59.9234 14.4154 60.5438 13.4308C61.1022 12.3846 61.9088 11.5846 62.9635 11.0308C64.0182 10.4769 65.135 10.1692 66.438 10.1692C67.7409 10.1692 68.8577 10.4769 69.9124 11.0308C70.9051 11.6462 71.7117 12.4462 72.3321 13.4308C72.8905 14.4154 73.2007 15.5846 73.2007 16.8154C73.2007 18.0462 72.9526 19.2154 72.3321 20.2Z" fill="white"/>
<path fill-rule="evenodd" clip-rule="evenodd" d="M103.168 9.30769L98.0182 24.3846H96.8394L92.1241 10.8462L87.4088 24.3846H86.2299L81.0803 9.30769H82.2591L86.9124 22.8462L91.6898 9.30769H92.7445L97.4599 22.9077L102.113 9.30769H103.168Z" fill="white"/>
<path fill-rule="evenodd" clip-rule="evenodd" d="M121.905 23.4V24.3846H111.42V9.30769H121.595V10.2923H112.536V16.2615H120.664V17.2462H112.536V23.4H121.905Z" fill="white"/>
<path fill-rule="evenodd" clip-rule="evenodd" d="M137.974 19.3385L141.573 24.3846V24.4462H142.752L138.967 19.1538C140.146 18.7846 141.015 18.2308 141.635 17.4308C142.255 16.6308 142.566 15.5846 142.566 14.4154C142.566 12.8154 142.069 11.5846 140.953 10.6615C139.898 9.73846 138.409 9.30769 136.485 9.30769H131.026V24.3846H132.142V19.4615H136.485C136.871 19.4615 137.305 19.4131 137.788 19.3591C137.85 19.3523 137.912 19.3454 137.974 19.3385ZM140.146 17.4308C139.277 18.1077 138.036 18.4769 136.423 18.4769V18.5385H132.08V10.3538H136.423C138.036 10.3538 139.277 10.6615 140.146 11.4C141.015 12.0769 141.449 13.1231 141.449 14.4154C141.449 15.7077 141.015 16.6923 140.146 17.4308Z" fill="white"/>
<path fill-rule="evenodd" clip-rule="evenodd" d="M32.3083 33.1875C32.4317 33.375 32.555 33.5 32.74 33.625C32.925 33.6875 33.11 33.75 33.3567 33.75C33.5417 33.75 33.665 33.75 33.85 33.625C34.035 33.5 34.1583 33.375 34.2817 33.1875C34.3433 33 34.405 32.8125 34.405 32.5625C34.405 32.3125 34.405 32.125 34.2817 31.9375C34.1583 31.75 34.035 31.625 33.85 31.5C33.7267 31.4375 33.48 31.375 33.295 31.375C33.11 31.375 32.925 31.375 32.74 31.5C32.555 31.625 32.4317 31.75 32.3083 31.9375C32.2467 32.125 32.185 32.3125 32.185 32.5625C32.185 32.8125 32.185 33 32.3083 33.1875ZM34.0967 33.125C34.035 33.25 33.9117 33.375 33.7883 33.4375C33.665 33.5 33.48 33.5625 33.295 33.5625C33.11 33.5625 32.925 33.5 32.8017 33.4375C32.6783 33.375 32.555 33.25 32.4933 33.125C32.4317 33 32.37 32.8125 32.37 32.625C32.37 32.4375 32.4317 32.25 32.4933 32.125C32.555 32 32.6167 31.875 32.8017 31.8125C32.8403 31.7995 32.8762 31.7864 32.9106 31.7739C33.0408 31.7266 33.1486 31.6875 33.295 31.6875C33.48 31.6875 33.665 31.75 33.7883 31.8125C33.9117 31.875 34.035 32 34.0967 32.125C34.1583 32.25 34.22 32.4375 34.22 32.625C34.22 32.8125 34.1583 33 34.0967 33.125Z" fill="white"/>
<path fill-rule="evenodd" clip-rule="evenodd" d="M37.8583 31.4375V33.75H37.6733V33.25C37.6117 33.4375 37.4883 33.5625 37.365 33.625C37.18 33.75 36.995 33.75 36.81 33.75C36.5017 33.75 36.3167 33.6875 36.1317 33.5C35.9467 33.3125 35.885 33.125 35.885 32.8125V31.5H36.1317V32.8125C36.1317 33.0625 36.1933 33.25 36.3167 33.375C36.44 33.5 36.625 33.5625 36.8717 33.5625C37.1183 33.5625 37.3033 33.5 37.4883 33.3125C37.6117 33.125 37.735 32.9375 37.735 32.6875V31.5H37.8583V31.4375Z" fill="white"/>
<path fill-rule="evenodd" clip-rule="evenodd" d="M40.6333 33.625C40.5717 33.6875 40.51 33.6875 40.4483 33.75C40.3867 33.75 40.2633 33.8125 40.2017 33.8125C40.0167 33.8125 39.8317 33.75 39.77 33.625C39.7083 33.5 39.585 33.375 39.585 33.1875V31.6875H39.1533V31.5H39.585V31H39.8317V31.5H40.5717V31.6875H39.8317V33.125C39.8317 33.25 39.8933 33.375 39.955 33.4375C40.0167 33.5 40.14 33.5625 40.2633 33.5625C40.3867 33.5625 40.51 33.5 40.6333 33.4375V33.625Z" fill="white"/>
<path fill-rule="evenodd" clip-rule="evenodd" d="M42.0517 33.6875C41.8667 33.625 41.7433 33.5625 41.6817 33.5L41.805 33.3125C41.8667 33.375 41.99 33.4375 42.175 33.5C42.36 33.5625 42.4833 33.5625 42.6067 33.5625C42.8533 33.5625 42.9767 33.5 43.1 33.4375C43.2233 33.375 43.285 33.25 43.285 33.125C43.285 33 43.285 32.9375 43.2233 32.875C43.1617 32.8125 43.1 32.75 42.9767 32.75C42.915 32.75 42.7917 32.6875 42.6067 32.6875C42.4217 32.625 42.2983 32.625 42.175 32.5625C42.0517 32.5 41.99 32.5 41.8667 32.4375C41.805 32.375 41.7433 32.25 41.7433 32.0625C41.7433 31.875 41.805 31.75 41.99 31.625C42.1133 31.5 42.36 31.4375 42.6067 31.4375C42.73 31.4375 42.915 31.4375 43.0383 31.5C43.1617 31.5625 43.285 31.625 43.4083 31.6875L43.285 31.875C43.2233 31.8125 43.1 31.75 42.9767 31.75C42.8533 31.75 42.73 31.6875 42.6067 31.6875C42.4217 31.6875 42.2367 31.75 42.1133 31.8125C41.99 31.875 41.9283 32 41.9283 32.125C41.9283 32.25 41.9283 32.3125 41.99 32.375C42.0517 32.4375 42.1133 32.5 42.2367 32.5C42.36 32.5 42.4833 32.5 42.6683 32.5C42.8533 32.5625 42.9767 32.5625 43.1 32.625C43.2233 32.6875 43.285 32.75 43.3467 32.8125C43.4083 32.875 43.47 33 43.47 33.125C43.47 33.3125 43.4083 33.4375 43.2233 33.5625C43.0383 33.6875 42.8533 33.75 42.6067 33.75C42.4217 33.75 42.2367 33.75 42.0517 33.6875Z" fill="white"/>
<path fill-rule="evenodd" clip-rule="evenodd" d="M44.7033 33.1875C44.8267 33.375 44.95 33.5 45.135 33.625C45.32 33.6875 45.505 33.75 45.69 33.75C45.875 33.75 46.06 33.75 46.245 33.625C46.43 33.5 46.5533 33.375 46.6767 33.1875C46.7383 33 46.8 32.8125 46.8 32.5625C46.8 32.3125 46.8 32.125 46.6767 31.9375C46.5533 31.75 46.43 31.625 46.245 31.5C46.1217 31.4375 45.875 31.375 45.69 31.375C45.505 31.375 45.32 31.375 45.135 31.5C44.95 31.625 44.8267 31.75 44.7033 31.9375C44.6417 32.125 44.58 32.3125 44.58 32.5625C44.58 32.8125 44.58 33 44.7033 33.1875ZM46.4917 33.125C46.43 33.25 46.3067 33.375 46.1833 33.4375C46.06 33.5 45.875 33.5625 45.69 33.5625C45.505 33.5625 45.32 33.5 45.1967 33.4375C45.0733 33.375 44.95 33.25 44.8883 33.125C44.8267 33 44.765 32.8125 44.765 32.625C44.765 32.4375 44.8267 32.25 44.8883 32.125C44.95 32 45.0117 31.875 45.1967 31.8125C45.2353 31.7995 45.2712 31.7864 45.3056 31.7739C45.4358 31.7266 45.5436 31.6875 45.69 31.6875C45.875 31.6875 46.06 31.75 46.1833 31.8125C46.3067 31.875 46.43 32 46.4917 32.125C46.5533 32.25 46.615 32.4375 46.615 32.625C46.615 32.8125 46.5533 33 46.4917 33.125Z" fill="white"/>
<path fill-rule="evenodd" clip-rule="evenodd" d="M50.2533 31.4375V33.75H50.0683V33.25C50.0067 33.4375 49.8833 33.5625 49.76 33.625C49.6367 33.6875 49.39 33.75 49.205 33.75C48.8967 33.75 48.7117 33.6875 48.5267 33.5C48.3417 33.3125 48.28 33.125 48.28 32.8125V31.5H48.5267V32.8125C48.5267 33.0625 48.5883 33.25 48.7117 33.375C48.835 33.5 49.02 33.5625 49.2667 33.5625C49.5133 33.5625 49.6983 33.5 49.8833 33.3125C50.0067 33.125 50.13 32.9375 50.13 32.6875V31.5H50.2533V31.4375Z" fill="white"/>
<path fill-rule="evenodd" clip-rule="evenodd" d="M52.4733 31.5625C52.5967 31.5 52.7817 31.4375 53.0283 31.4375V31.625H52.9667C52.72 31.625 52.535 31.6875 52.35 31.875C52.2267 32.0625 52.165 32.25 52.165 32.5625V33.75H51.9183V31.4375H52.1033V31.9375C52.2267 31.8125 52.2883 31.6875 52.4733 31.5625Z" fill="white"/>
<path fill-rule="evenodd" clip-rule="evenodd" d="M54.6317 33.625C54.4467 33.5 54.3233 33.375 54.2 33.1875C54.0767 33 54.0767 32.8125 54.0767 32.5625C54.0767 32.3125 54.1383 32.125 54.2 31.9375C54.3233 31.75 54.4467 31.625 54.6317 31.5C54.8167 31.375 55.0017 31.375 55.2483 31.375C55.4333 31.375 55.6183 31.4375 55.7417 31.5C55.865 31.5625 55.9883 31.6875 56.1117 31.8125L55.9267 31.9375C55.865 31.8125 55.7417 31.75 55.6183 31.6875C55.495 31.625 55.3717 31.625 55.2483 31.625C55.0633 31.625 54.94 31.6875 54.755 31.75C54.6317 31.8125 54.5083 31.9375 54.4467 32.0625C54.385 32.1875 54.3233 32.375 54.3233 32.5625C54.3233 32.75 54.385 32.9375 54.4467 33.0625C54.5083 33.1875 54.6317 33.3125 54.755 33.375C54.8783 33.4375 55.0633 33.5 55.2483 33.5C55.3717 33.5 55.495 33.5 55.6183 33.4375C55.7417 33.375 55.865 33.3125 55.9267 33.1875L56.1117 33.3125C56.05 33.4375 55.9267 33.5625 55.7417 33.625C55.5567 33.6875 55.3717 33.75 55.2483 33.75C55.0017 33.75 54.8167 33.6875 54.6317 33.625Z" fill="white"/>
<path fill-rule="evenodd" clip-rule="evenodd" d="M57.4067 32.6875H59.3183C59.38 32.375 59.3183 32.1875 59.1333 31.9375C59.0717 31.75 58.9483 31.625 58.7633 31.5C58.5783 31.4375 58.3933 31.375 58.2083 31.375C58.0233 31.375 57.8383 31.375 57.6533 31.5C57.6234 31.5303 57.5899 31.5607 57.5553 31.5919C57.4475 31.6893 57.33 31.7955 57.2833 31.9375C57.2217 32.125 57.16 32.3125 57.16 32.5625C57.16 32.8125 57.16 33 57.2833 33.1875C57.4067 33.375 57.53 33.5 57.715 33.625C57.9 33.6875 58.085 33.75 58.3317 33.75C58.5167 33.75 58.7017 33.75 58.825 33.6875C58.9483 33.625 59.0717 33.5625 59.195 33.4375L59.0717 33.3125C59.01 33.4375 58.8867 33.5 58.7633 33.5625C58.64 33.625 58.455 33.625 58.3317 33.625C58.1467 33.625 57.9617 33.5625 57.8383 33.5C57.715 33.4375 57.5917 33.3125 57.53 33.1875C57.5171 33.1484 57.5043 33.112 57.492 33.0771C57.4453 32.9451 57.4067 32.8359 57.4067 32.6875ZM57.53 32.0625C57.5917 31.9375 57.715 31.8125 57.8383 31.75C57.9617 31.6875 58.1467 31.625 58.27 31.625C58.455 31.625 58.5783 31.6875 58.7017 31.75C58.825 31.8125 58.9483 31.9375 59.01 32.0625C59.0717 32.1875 59.1333 32.3125 59.1333 32.5H57.4067C57.4067 32.3125 57.4683 32.1875 57.53 32.0625Z" fill="white"/>
<path fill-rule="evenodd" clip-rule="evenodd" d="M62.71 30.5H62.895V34.625H62.71V30.5Z" fill="white"/>
<path fill-rule="evenodd" clip-rule="evenodd" d="M66.595 33.6875C66.41 33.625 66.2867 33.5625 66.225 33.5L66.3483 33.3125C66.41 33.375 66.5333 33.4375 66.7183 33.5C66.8417 33.5625 67.0267 33.5625 67.15 33.5625C67.3967 33.5625 67.52 33.5 67.6433 33.4375C67.7667 33.375 67.8283 33.25 67.8283 33.125C67.8283 33 67.8283 32.9375 67.7667 32.875C67.705 32.8125 67.6433 32.75 67.52 32.75C67.3967 32.75 67.335 32.6875 67.15 32.6875C66.965 32.625 66.8417 32.625 66.7183 32.5625C66.595 32.5 66.5333 32.4375 66.41 32.375C66.3483 32.3125 66.2867 32.1875 66.2867 32C66.2867 31.8125 66.3483 31.6875 66.5333 31.5625C66.6567 31.4375 66.9033 31.375 67.15 31.375C67.2733 31.375 67.4583 31.375 67.5817 31.4375C67.705 31.5 67.8283 31.5625 67.9517 31.625L67.8283 31.8125C67.7667 31.75 67.6433 31.6875 67.52 31.6875C67.3967 31.6875 67.2733 31.625 67.15 31.625C66.965 31.625 66.78 31.6875 66.6567 31.75C66.5333 31.8125 66.4717 31.9375 66.4717 32.0625C66.4717 32.1875 66.4717 32.25 66.5333 32.3125C66.595 32.375 66.6567 32.4375 66.78 32.4375C66.8417 32.4375 66.965 32.5 67.15 32.5C67.335 32.5625 67.4583 32.5625 67.5817 32.625C67.705 32.6875 67.7667 32.75 67.8283 32.8125C67.89 32.875 67.9517 33 67.9517 33.125C67.9517 33.3125 67.89 33.4375 67.705 33.5625C67.52 33.6875 67.335 33.75 67.0267 33.75C66.9033 33.75 66.7183 33.75 66.595 33.6875Z" fill="white"/>
<path fill-rule="evenodd" clip-rule="evenodd" d="M69.37 32.6875H71.2817C71.2817 32.4564 71.2142 32.2936 71.1541 32.1487C71.133 32.0976 71.1127 32.0488 71.0967 32C71.035 31.8125 70.9117 31.6875 70.7267 31.5625C70.5417 31.5 70.3567 31.4375 70.1717 31.4375C69.9867 31.4375 69.8017 31.4375 69.6167 31.5625C69.4933 31.6875 69.37 31.8125 69.2467 32C69.185 32.1875 69.1233 32.375 69.1233 32.625C69.1233 32.875 69.1233 33.0625 69.2467 33.25C69.37 33.4375 69.4933 33.625 69.6783 33.6875C69.8633 33.75 70.0483 33.8125 70.295 33.8125C70.48 33.8125 70.665 33.75 70.7883 33.6875C70.9117 33.625 71.035 33.5625 71.1583 33.4375L71.035 33.3125C70.9733 33.4375 70.85 33.5 70.7267 33.5625C70.6033 33.625 70.4183 33.625 70.295 33.625C70.11 33.625 69.925 33.5625 69.8017 33.5C69.6783 33.4375 69.555 33.3125 69.4933 33.1875C69.4805 33.1484 69.4676 33.112 69.4553 33.0771C69.4086 32.9451 69.37 32.8359 69.37 32.6875ZM69.4317 32.0625C69.4933 31.9375 69.6167 31.8125 69.74 31.75C69.8633 31.6875 70.0483 31.625 70.1717 31.625C70.3567 31.625 70.48 31.6875 70.6033 31.75C70.7267 31.8125 70.85 31.9375 70.9117 32.0625C70.9733 32.1875 71.035 32.3125 71.035 32.5H69.3083C69.3083 32.3125 69.37 32.1875 69.4317 32.0625Z" fill="white"/>
<path fill-rule="evenodd" clip-rule="evenodd" d="M73.0083 33.625C72.8233 33.5 72.7 33.375 72.5767 33.1875C72.4533 33 72.4533 32.8125 72.4533 32.5625C72.4533 32.3125 72.515 32.125 72.5767 31.9375C72.7 31.75 72.8233 31.625 73.0083 31.5C73.1933 31.375 73.3783 31.375 73.625 31.375C73.81 31.375 73.995 31.4375 74.1183 31.5C74.2417 31.5625 74.365 31.6875 74.4883 31.8125L74.3033 31.9375C74.2417 31.8125 74.1183 31.75 73.995 31.6875C73.8717 31.625 73.7483 31.625 73.625 31.625C73.44 31.625 73.3167 31.6875 73.1317 31.75C73.0083 31.8125 72.885 31.9375 72.8233 32.0625C72.7617 32.1875 72.7 32.375 72.7 32.5625C72.7 32.75 72.7617 32.9375 72.8233 33.0625C72.885 33.1875 73.0083 33.3125 73.1317 33.375C73.255 33.4375 73.44 33.5 73.625 33.5C73.7483 33.5 73.8717 33.5 73.995 33.4375C74.1183 33.375 74.2417 33.3125 74.3033 33.1875L74.4883 33.3125C74.4267 33.4375 74.3033 33.5625 74.1183 33.625C73.995 33.6875 73.81 33.75 73.625 33.75C73.3783 33.75 73.1933 33.6875 73.0083 33.625Z" fill="white"/>
<path fill-rule="evenodd" clip-rule="evenodd" d="M77.8183 31.4375V33.75H77.6333V33.25C77.5717 33.4375 77.4483 33.5625 77.325 33.625C77.2017 33.6875 77.0167 33.75 76.8317 33.75C76.5233 33.75 76.3383 33.6875 76.1533 33.5C75.9683 33.3125 75.9067 33.125 75.9067 32.8125V31.5H76.0917V32.8125C76.0917 33.0625 76.1533 33.25 76.2767 33.375C76.4 33.5 76.585 33.5625 76.8317 33.5625C77.0783 33.5625 77.2633 33.5 77.4483 33.3125C77.6333 33.125 77.695 32.9375 77.695 32.6875V31.5H77.8183V31.4375Z" fill="white"/>
<path fill-rule="evenodd" clip-rule="evenodd" d="M80.0383 31.5625C80.1617 31.5 80.3467 31.4375 80.5933 31.4375V31.625H80.5317C80.285 31.625 80.1 31.6875 79.915 31.875C79.7917 32.0625 79.73 32.25 79.73 32.5625V33.75H79.4833V31.4375H79.6683V31.9375C79.7917 31.8125 79.8533 31.6875 80.0383 31.5625Z" fill="white"/>
<path fill-rule="evenodd" clip-rule="evenodd" d="M81.8319 30.7997C81.841 30.8209 81.8658 30.8354 81.9335 30.875C81.9869 30.875 82.0136 30.8906 82.0403 30.9062C82.067 30.9219 82.0937 30.9375 82.1472 30.9375C82.1969 30.9375 82.2235 30.9375 82.2485 30.9312C82.2771 30.924 82.3037 30.9084 82.3608 30.875C82.4676 30.8125 82.4676 30.8125 82.4676 30.75C82.4676 30.6875 82.4676 30.6875 82.3608 30.625C82.3037 30.5916 82.2771 30.576 82.2485 30.5688C82.2235 30.5625 82.1969 30.5625 82.1472 30.5625C82.0403 30.5625 82.0403 30.5625 81.9335 30.625C81.8658 30.6646 81.841 30.6791 81.8319 30.7003C81.8267 30.7126 81.8267 30.7271 81.8267 30.75C81.8267 30.7729 81.8267 30.7874 81.8319 30.7997ZM82.254 31.4375H81.9335V33.75H82.254V31.4375Z" fill="white"/>
<path fill-rule="evenodd" clip-rule="evenodd" d="M84.91 33.625C84.8483 33.6875 84.7867 33.6875 84.725 33.75C84.6633 33.75 84.54 33.8125 84.4783 33.8125C84.2933 33.8125 84.1083 33.75 84.0467 33.625C83.985 33.5 83.8617 33.375 83.8617 33.1875V31.6875H83.43V31.5H83.8617V31H84.0467V31.5H84.7867V31.6875H84.0467V33.125C84.0467 33.25 84.1083 33.375 84.17 33.4375C84.2317 33.5 84.355 33.5625 84.4783 33.5625C84.6017 33.5625 84.725 33.5 84.8483 33.4375L84.91 33.625Z" fill="white"/>
<path fill-rule="evenodd" clip-rule="evenodd" d="M88.055 31.4375L86.8833 34.0625C86.8217 34.25 86.6983 34.4375 86.575 34.5C86.4517 34.5625 86.3283 34.625 86.1433 34.625C86.02 34.625 85.9583 34.625 85.835 34.5625C85.7733 34.5 85.65 34.5 85.5883 34.4375L85.7117 34.25C85.835 34.375 85.9583 34.4375 86.1433 34.4375C86.2667 34.4375 86.3283 34.4375 86.4517 34.375C86.5133 34.3125 86.575 34.1875 86.6367 34.0625L86.76 33.8125L85.7733 31.5625H86.02L86.945 33.625L87.87 31.5625H88.055V31.4375Z" fill="white"/>
<path fill-rule="evenodd" clip-rule="evenodd" d="M91.2 30.5H91.385V34.625H91.2V30.5Z" fill="white"/>
<path fill-rule="evenodd" clip-rule="evenodd" d="M96.8117 31.4375L95.7633 33.75H95.5167L94.53 31.4375H94.7767L95.7017 33.5L96.6267 31.4375H96.8117Z" fill="white"/>
<path fill-rule="evenodd" clip-rule="evenodd" d="M97.86 33.1875C97.9833 33.375 98.1067 33.5 98.2917 33.625C98.4767 33.6875 98.6617 33.75 98.8467 33.75C99.0317 33.75 99.2167 33.75 99.4017 33.625C99.5867 33.5 99.7717 33.375 99.8333 33.1875C99.895 33 99.9567 32.8125 99.9567 32.5625C99.9567 32.3125 99.9567 32.125 99.8333 31.9375C99.71 31.75 99.5867 31.625 99.4017 31.5C99.2783 31.4375 99.0317 31.375 98.8467 31.375C98.6617 31.375 98.4767 31.375 98.2917 31.5C98.1067 31.625 97.9217 31.75 97.86 31.9375C97.7983 32.125 97.7367 32.3125 97.7367 32.5625C97.7367 32.8125 97.7367 33 97.86 33.1875ZM99.6483 33.125C99.5867 33.25 99.4633 33.375 99.34 33.4375C99.2167 33.5 99.0317 33.5625 98.8467 33.5625C98.6617 33.5625 98.4767 33.5 98.3533 33.4375C98.23 33.375 98.1067 33.25 98.045 33.125C97.9833 33 97.9217 32.8125 97.9217 32.625C97.9217 32.4375 97.9833 32.25 98.045 32.125C98.1067 32 98.23 31.875 98.3533 31.8125C98.3919 31.7995 98.4279 31.7864 98.4622 31.7739C98.5925 31.7266 98.7003 31.6875 98.8467 31.6875C99.0317 31.6875 99.2167 31.75 99.34 31.8125C99.4633 31.875 99.5867 32 99.6483 32.125C99.71 32.25 99.7717 32.4375 99.7717 32.625C99.7717 32.8125 99.71 33 99.6483 33.125Z" fill="white"/>
<path fill-rule="evenodd" clip-rule="evenodd" d="M101.38 30.7997C101.389 30.8209 101.414 30.8354 101.482 30.875C101.482 30.875 101.589 30.9375 101.695 30.9375C101.745 30.9375 101.772 30.9375 101.797 30.9312C101.825 30.924 101.852 30.9084 101.909 30.875C102.016 30.8125 102.016 30.8125 102.016 30.75C102.016 30.6875 102.016 30.6875 101.909 30.625C101.852 30.5916 101.825 30.576 101.797 30.5688C101.772 30.5625 101.745 30.5625 101.695 30.5625C101.589 30.5625 101.589 30.5625 101.482 30.625C101.414 30.6646 101.389 30.6791 101.38 30.7003C101.375 30.7126 101.375 30.7271 101.375 30.75C101.375 30.7729 101.375 30.7874 101.38 30.7997ZM101.909 33.75V31.4375H101.482V33.75H101.909Z" fill="white"/>
<path fill-rule="evenodd" clip-rule="evenodd" d="M105.383 32.0625C105.322 31.875 105.198 31.75 105.013 31.625C104.828 31.5 104.643 31.4375 104.458 31.625C104.273 31.625 104.088 31.625 103.903 31.75C103.718 31.875 103.595 32 103.533 32.1875V31.625H103.348V34.75H103.533V33.375C103.595 33.5 103.718 33.625 103.903 33.75C104.088 33.8125 104.273 33.875 104.458 33.875C104.643 33.875 104.828 33.875 105.013 33.75C105.043 33.7197 105.077 33.6893 105.111 33.6581C105.219 33.5607 105.337 33.4545 105.383 33.3125C105.445 33.125 105.507 32.9375 105.507 32.6875C105.507 32.4375 105.445 32.25 105.383 32.0625ZM105.198 33.125C105.137 33.25 105.013 33.375 104.89 33.4375C104.767 33.5 104.582 33.5625 104.397 33.5625C104.212 33.5625 104.027 33.5 103.903 33.4375C103.78 33.375 103.657 33.25 103.595 33.125C103.533 33 103.472 32.8125 103.472 32.625C103.472 32.4375 103.533 32.25 103.595 32.125C103.657 32 103.718 31.875 103.903 31.8125C103.942 31.7995 103.978 31.7864 104.012 31.7739C104.142 31.7266 104.25 31.6875 104.397 31.6875C104.582 31.6875 104.767 31.75 104.89 31.8125C105.013 31.875 105.137 32 105.198 32.125C105.26 32.25 105.322 32.4375 105.322 32.625C105.322 32.8125 105.26 33 105.198 33.125Z" fill="white"/>
<path fill-rule="evenodd" clip-rule="evenodd" d="M8.37 9.125H10.4667V24H8.37V9.125Z" fill="white"/>
<path fill-rule="evenodd" clip-rule="evenodd" d="M20.7033 11H15.6467V9.125H27.795V11H22.8V24H20.7033V11Z" fill="white"/>
<path fill-rule="evenodd" clip-rule="evenodd" d="M44.8767 14.3125C44.8767 12.6875 44.3217 11.4375 43.2117 10.5C42.1633 9.5625 40.6833 9.125 38.7717 9.125H33.0367V24H35.1333V19.5H38.71C40.6217 19.5 42.1017 19.0625 43.2117 18.125C44.3217 17.1875 44.8767 15.9375 44.8767 14.3125ZM42.78 14.3125C42.78 15.4375 42.41 16.25 41.7317 16.8125C41.0533 17.375 40.005 17.625 38.71 17.625H35.1333V10.9375H38.71C40.005 10.9375 41.0533 11.25 41.7317 11.8125C42.41 12.4375 42.78 13.1875 42.78 14.3125Z" fill="white"/>
<path d="M52 17.1226V1H1V33H26.5" stroke="white" stroke-width="1.5" stroke-linecap="round" stroke-linejoin="round"/>
</svg>
