<svg id="Слой_1" data-name="Слой 1" xmlns="http://www.w3.org/2000/svg" viewBox="0 0 583.79 132.15"><defs><style>.cls-1{fill:#fff;}.cls-2{isolation:isolate;}.cls-3{fill:none;stroke:#fff;stroke-linecap:round;stroke-linejoin:round;stroke-width:3.5px;}</style></defs><title>logo_new</title><g id="Page-1"><g id="Fb_cover" data-name="Fb cover"><g id="Group"><polygon id="Path" class="cls-1" points="28.24 27.25 36.8 27.25 36.8 86.75 28.24 86.75 28.24 27.25"/><polygon id="Path-2" data-name="Path" class="cls-1" points="78.58 34.75 57.94 34.75 57.94 27.25 107.53 27.25 107.53 34.75 87.14 34.75 87.14 86.75 78.58 86.75 78.58 34.75"/><path id="Shape" class="cls-1" d="M170.7,33c4.53,3.75,6.8,8.75,6.8,15.25s-2.27,11.5-6.8,15.25S160.13,69,152.33,69h-14.6V87h-8.56V27.5h23.41C160.38,27.5,166.42,29.25,170.7,33Zm-6,25.25c2.77-2.25,4.28-5.5,4.28-10a12.43,12.43,0,0,0-4.28-10c-2.77-2.25-7-3.5-12.33-3.5h-14.6V61.5h14.6C157.61,61.5,161.89,60.5,164.66,58.25Z" transform="translate(-0.25 -0.25)"/><path id="Shape-2" data-name="Shape" class="cls-1" d="M249.09,82.78A31,31,0,0,1,237.5,40a29.42,29.42,0,0,1,11.59-11.26,33.14,33.14,0,0,1,44.32,11,30.41,30.41,0,0,1,4.29,16,31,31,0,0,1-4.29,16,27.18,27.18,0,0,1-11.58,11,36,36,0,0,1-16.37,4A30,30,0,0,1,249.09,82.78Zm30.22-3.5a23,23,0,0,0,9.82-9.76,25.47,25.47,0,0,0,3.53-13.75A27.9,27.9,0,0,0,289.13,42a30.52,30.52,0,0,0-9.82-9.76,30.17,30.17,0,0,0-28.21,0A23.12,23.12,0,0,0,241.28,42a25.48,25.48,0,0,0-3.53,13.76,27.89,27.89,0,0,0,3.53,13.75,30.42,30.42,0,0,0,9.82,9.76,29.47,29.47,0,0,0,14.11,3.5C270.49,82.78,275.28,81.78,279.31,79.28Z" transform="translate(-0.25 -0.25)"/><polygon id="Path-3" data-name="Path" class="cls-1" points="414.06 25 393.15 86.28 388.37 86.28 369.23 31.25 350.08 86.28 345.3 86.28 324.39 25 329.18 25 348.07 80.03 367.46 25 371.74 25 390.88 80.28 409.77 25 414.06 25"/><polygon id="Path-4" data-name="Path" class="cls-1" points="490.12 82.28 490.12 86.28 447.55 86.28 447.55 25 488.86 25 488.86 29 452.09 29 452.09 53.27 485.08 53.27 485.08 57.27 452.09 57.27 452.09 82.28 490.12 82.28"/><path id="Shape-3" data-name="Shape" class="cls-1" d="M570.21,86.53,555.6,66a58.86,58.86,0,0,1-6.05.5H531.92v20h-4.53V25.25h22.16c7.81,0,13.86,1.75,18.14,5.5,4.53,3.76,6.55,8.76,6.55,15.26a19.76,19.76,0,0,1-3.78,12.26c-2.52,3.25-6.05,5.5-10.83,7L575,86.78h-4.78Zm-20.91-24c6.55,0,11.59-1.5,15.11-4.25,3.53-3,5.29-7,5.29-12.26s-1.76-9.5-5.29-12.26c-3.52-3-8.56-4.25-15.11-4.25H531.67V62.77H549.3Z" transform="translate(-0.25 -0.25)"/><g id="outsource-_-security" data-name="outsource-|-security" class="cls-2"><g class="cls-2"><path class="cls-1" d="M129.87,127.36a5.57,5.57,0,0,1-2.16-2.12,6.36,6.36,0,0,1,0-6.14,5.55,5.55,0,0,1,2.16-2.11,6.39,6.39,0,0,1,3.13-.76,6.31,6.31,0,0,1,3.11.76,5.52,5.52,0,0,1,2.15,2.11,6.36,6.36,0,0,1,0,6.14,5.55,5.55,0,0,1-2.15,2.12,6.21,6.21,0,0,1-3.11.77A6.29,6.29,0,0,1,129.87,127.36Zm5.14-1.59a3.75,3.75,0,0,0,1.4-1.45,4.55,4.55,0,0,0,.5-2.15,4.48,4.48,0,0,0-.5-2.14,3.62,3.62,0,0,0-1.4-1.45,4.31,4.31,0,0,0-4,0,3.62,3.62,0,0,0-1.4,1.45,4.27,4.27,0,0,0-.52,2.14,4.33,4.33,0,0,0,.52,2.15,3.75,3.75,0,0,0,1.4,1.45,4.24,4.24,0,0,0,4,0Z" transform="translate(-0.25 -0.25)"/><path class="cls-1" d="M159.55,116.34V128h-2v-1.76a4.33,4.33,0,0,1-1.68,1.4,5.28,5.28,0,0,1-2.28.49,5.1,5.1,0,0,1-3.68-1.29,5,5,0,0,1-1.34-3.79v-6.71h2.11v6.47a3.63,3.63,0,0,0,.82,2.56,3,3,0,0,0,2.33.87,3.51,3.51,0,0,0,2.64-1,4,4,0,0,0,1-2.86v-6Z" transform="translate(-0.25 -0.25)"/><path class="cls-1" d="M176.84,127.32a3.25,3.25,0,0,1-1.14.6,4.82,4.82,0,0,1-1.41.21,3.76,3.76,0,0,1-2.73-.94,3.65,3.65,0,0,1-1-2.71v-6.4h-2v-1.74h2v-2.55h2.12v2.55h3.34v1.74h-3.34v6.31a2,2,0,0,0,.47,1.45,1.73,1.73,0,0,0,1.35.51,2.51,2.51,0,0,0,1.65-.55Z" transform="translate(-0.25 -0.25)"/><path class="cls-1" d="M186.7,127.75a6.24,6.24,0,0,1-2.07-1l.88-1.67a6.49,6.49,0,0,0,1.87.88,7.65,7.65,0,0,0,2.22.33c1.85,0,2.77-.53,2.77-1.59a1,1,0,0,0-.37-.83,2.36,2.36,0,0,0-.94-.46c-.37-.09-.9-.2-1.59-.31a16,16,0,0,1-2.3-.51,3.55,3.55,0,0,1-1.53-1,2.7,2.7,0,0,1-.64-1.91,3,3,0,0,1,1.32-2.54,5.91,5.91,0,0,1,3.55-1,9.84,9.84,0,0,1,2.33.29,6.14,6.14,0,0,1,1.91.77l-.9,1.67a6,6,0,0,0-3.37-.93,3.91,3.91,0,0,0-2,.44,1.35,1.35,0,0,0-.71,1.17,1.12,1.12,0,0,0,.4.9,2.58,2.58,0,0,0,1,.49c.39.1.93.22,1.64.35a18.12,18.12,0,0,1,2.27.51,3.48,3.48,0,0,1,1.49.94,2.62,2.62,0,0,1,.62,1.85,2.94,2.94,0,0,1-1.36,2.52,6.4,6.4,0,0,1-3.68.93A10,10,0,0,1,186.7,127.75Z" transform="translate(-0.25 -0.25)"/><path class="cls-1" d="M205.71,127.36a5.53,5.53,0,0,1-2.17-2.12,6.43,6.43,0,0,1,0-6.14,5.51,5.51,0,0,1,2.17-2.11,6.32,6.32,0,0,1,3.12-.76,6.26,6.26,0,0,1,3.11.76,5.55,5.55,0,0,1,2.16,2.11,6.43,6.43,0,0,1,0,6.14,5.57,5.57,0,0,1-2.16,2.12,6.16,6.16,0,0,1-3.11.77A6.22,6.22,0,0,1,205.71,127.36Zm5.13-1.59a3.69,3.69,0,0,0,1.4-1.45,4.44,4.44,0,0,0,.51-2.15,4.37,4.37,0,0,0-.51-2.14,3.56,3.56,0,0,0-1.4-1.45,4.29,4.29,0,0,0-4,0,3.58,3.58,0,0,0-1.41,1.45,4.27,4.27,0,0,0-.52,2.14,4.33,4.33,0,0,0,.52,2.15,3.71,3.71,0,0,0,1.41,1.45,4.22,4.22,0,0,0,4,0Z" transform="translate(-0.25 -0.25)"/><path class="cls-1" d="M235.38,116.34V128h-2v-1.76a4.26,4.26,0,0,1-1.68,1.4,5.28,5.28,0,0,1-2.28.49,5.07,5.07,0,0,1-3.67-1.29,5,5,0,0,1-1.34-3.79v-6.71h2.11v6.47a3.62,3.62,0,0,0,.81,2.56,3,3,0,0,0,2.33.87,3.48,3.48,0,0,0,2.64-1,4,4,0,0,0,1-2.86v-6Z" transform="translate(-0.25 -0.25)"/><path class="cls-1" d="M249.77,116.76a5.94,5.94,0,0,1,2.62-.53v2a3.1,3.1,0,0,0-.49,0,3.52,3.52,0,0,0-2.69,1,4,4,0,0,0-1,2.91V128h-2.11V116.34h2v2A3.58,3.58,0,0,1,249.77,116.76Z" transform="translate(-0.25 -0.25)"/><path class="cls-1" d="M263.49,127.36a5.65,5.65,0,0,1-2.19-2.12,6.36,6.36,0,0,1,0-6.14,5.63,5.63,0,0,1,2.19-2.11,6.5,6.5,0,0,1,3.18-.76,6,6,0,0,1,2.82.64,4.53,4.53,0,0,1,1.93,1.85l-1.61,1a3.45,3.45,0,0,0-1.36-1.25,3.89,3.89,0,0,0-1.81-.42,4.23,4.23,0,0,0-2.05.5,3.57,3.57,0,0,0-1.43,1.45,4.27,4.27,0,0,0-.52,2.14,4.38,4.38,0,0,0,.52,2.17,3.6,3.6,0,0,0,1.43,1.44,4.12,4.12,0,0,0,2.05.5,4,4,0,0,0,1.81-.41,3.56,3.56,0,0,0,1.36-1.26l1.61,1a4.61,4.61,0,0,1-1.93,1.86,5.89,5.89,0,0,1-2.82.65A6.4,6.4,0,0,1,263.49,127.36Z" transform="translate(-0.25 -0.25)"/><path class="cls-1" d="M291.17,122.87h-9.46a3.7,3.7,0,0,0,1.36,2.48,4.42,4.42,0,0,0,2.87.93,4.34,4.34,0,0,0,3.36-1.4l1.17,1.36a5,5,0,0,1-2,1.41,7.45,7.45,0,0,1-5.91-.28,5.38,5.38,0,0,1-2.21-2.12,6.11,6.11,0,0,1-.78-3.08,6.25,6.25,0,0,1,.76-3.06,5.46,5.46,0,0,1,2.09-2.12,5.92,5.92,0,0,1,3-.76,5.83,5.83,0,0,1,3,.76,5.34,5.34,0,0,1,2,2.12,6.49,6.49,0,0,1,.74,3.13A6,6,0,0,1,291.17,122.87Zm-8.26-3.93a3.73,3.73,0,0,0-1.2,2.42h7.48A3.69,3.69,0,0,0,288,119a3.93,3.93,0,0,0-5.09,0Z" transform="translate(-0.25 -0.25)"/><path class="cls-1" d="M313.79,111.68h2v20.59h-2Z" transform="translate(-0.25 -0.25)"/><path class="cls-1" d="M340,127.75a6.24,6.24,0,0,1-2.07-1l.88-1.67a6.61,6.61,0,0,0,1.87.88,7.77,7.77,0,0,0,2.23.33c1.84,0,2.77-.53,2.77-1.59a1,1,0,0,0-.38-.83,2.39,2.39,0,0,0-.93-.46c-.37-.09-.91-.2-1.6-.31a16.6,16.6,0,0,1-2.3-.51,3.46,3.46,0,0,1-1.52-1,2.66,2.66,0,0,1-.64-1.91,3,3,0,0,1,1.32-2.54,5.89,5.89,0,0,1,3.54-1,9.78,9.78,0,0,1,2.33.29,6.1,6.1,0,0,1,1.92.77L346.5,119a6,6,0,0,0-3.36-.93,3.93,3.93,0,0,0-2.05.44,1.34,1.34,0,0,0-.7,1.17,1.1,1.1,0,0,0,.4.9,2.61,2.61,0,0,0,1,.49c.39.1.94.22,1.64.35a18.34,18.34,0,0,1,2.28.51,3.45,3.45,0,0,1,1.48.94,2.62,2.62,0,0,1,.62,1.85,2.93,2.93,0,0,1-1.35,2.52,6.42,6.42,0,0,1-3.69.93A10,10,0,0,1,340,127.75Z" transform="translate(-0.25 -0.25)"/><path class="cls-1" d="M367.62,122.87h-9.46a3.7,3.7,0,0,0,1.36,2.48,4.42,4.42,0,0,0,2.87.93,4.34,4.34,0,0,0,3.36-1.4l1.17,1.36a5,5,0,0,1-2,1.41,7.45,7.45,0,0,1-5.91-.28,5.38,5.38,0,0,1-2.21-2.12,6.51,6.51,0,0,1,0-6.14A5.46,5.46,0,0,1,358.9,117a5.92,5.92,0,0,1,3-.76,5.77,5.77,0,0,1,3,.76,5.3,5.3,0,0,1,2.05,2.12,6.49,6.49,0,0,1,.74,3.13A6,6,0,0,1,367.62,122.87Zm-8.26-3.93a3.73,3.73,0,0,0-1.2,2.42h7.48a3.69,3.69,0,0,0-1.19-2.41,3.93,3.93,0,0,0-5.09,0Z" transform="translate(-0.25 -0.25)"/><path class="cls-1" d="M379.21,127.36a5.65,5.65,0,0,1-2.19-2.12,6.36,6.36,0,0,1,0-6.14,5.63,5.63,0,0,1,2.19-2.11,6.5,6.5,0,0,1,3.18-.76,6,6,0,0,1,2.82.64,4.53,4.53,0,0,1,1.93,1.85l-1.61,1a3.45,3.45,0,0,0-1.36-1.25,3.92,3.92,0,0,0-1.81-.42,4.23,4.23,0,0,0-2.05.5,3.57,3.57,0,0,0-1.43,1.45,4.27,4.27,0,0,0-.52,2.14,4.38,4.38,0,0,0,.52,2.17,3.6,3.6,0,0,0,1.43,1.44,4.12,4.12,0,0,0,2.05.5,4,4,0,0,0,1.81-.41,3.56,3.56,0,0,0,1.36-1.26l1.61,1a4.61,4.61,0,0,1-1.93,1.86,5.92,5.92,0,0,1-2.82.65A6.4,6.4,0,0,1,379.21,127.36Z" transform="translate(-0.25 -0.25)"/><path class="cls-1" d="M407.44,116.34V128h-2v-1.76a4.19,4.19,0,0,1-1.68,1.4,5.28,5.28,0,0,1-2.28.49,5.07,5.07,0,0,1-3.67-1.29,5,5,0,0,1-1.34-3.79v-6.71h2.11v6.47a3.62,3.62,0,0,0,.81,2.56,3,3,0,0,0,2.33.87,3.48,3.48,0,0,0,2.64-1,4,4,0,0,0,1-2.86v-6Z" transform="translate(-0.25 -0.25)"/><path class="cls-1" d="M421.83,116.76a5.94,5.94,0,0,1,2.62-.53v2a3,3,0,0,0-.48,0,3.53,3.53,0,0,0-2.7,1,4,4,0,0,0-1,2.91V128h-2.11V116.34h2v2A3.58,3.58,0,0,1,421.83,116.76Z" transform="translate(-0.25 -0.25)"/><path class="cls-1" d="M433.79,113.7a1.31,1.31,0,0,1-.41-1,1.34,1.34,0,0,1,.41-1,1.38,1.38,0,0,1,1-.4,1.4,1.4,0,0,1,1,.38,1.25,1.25,0,0,1,.41,1,1.34,1.34,0,0,1-.41,1,1.39,1.39,0,0,1-1,.41A1.42,1.42,0,0,1,433.79,113.7Zm0,2.64h2.11V128h-2.11Z" transform="translate(-0.25 -0.25)"/><path class="cls-1" d="M453.16,127.32a3.25,3.25,0,0,1-1.14.6,4.82,4.82,0,0,1-1.41.21,3.74,3.74,0,0,1-2.73-.94,3.61,3.61,0,0,1-1-2.71v-6.4h-2v-1.74h2v-2.55H449v2.55h3.35v1.74H449v6.31a2,2,0,0,0,.48,1.45,1.73,1.73,0,0,0,1.35.51,2.55,2.55,0,0,0,1.65-.55Z" transform="translate(-0.25 -0.25)"/><path class="cls-1" d="M472.52,116.34l-5.65,12.83a5.85,5.85,0,0,1-1.75,2.5,4,4,0,0,1-2.41.73,4.91,4.91,0,0,1-1.66-.28,3.34,3.34,0,0,1-1.33-.8l.9-1.58a3,3,0,0,0,2.09.86,2,2,0,0,0,1.28-.41,3.44,3.44,0,0,0,.94-1.4l.37-.81-5.14-11.64h2.2l4.07,9.33,4-9.33Z" transform="translate(-0.25 -0.25)"/><path class="cls-1" d="M494.15,111.68h2v20.59h-2Z" transform="translate(-0.25 -0.25)"/><path class="cls-1" d="M530.07,116.34,525,128h-2.16l-5.1-11.66h2.2l4,9.35,4.09-9.35Z" transform="translate(-0.25 -0.25)"/><path class="cls-1" d="M540.3,127.36a5.6,5.6,0,0,1-2.17-2.12,6.43,6.43,0,0,1,0-6.14A5.57,5.57,0,0,1,540.3,117a6.78,6.78,0,0,1,6.24,0,5.59,5.59,0,0,1,2.15,2.11,6.43,6.43,0,0,1,0,6.14,5.61,5.61,0,0,1-2.15,2.12,6.71,6.71,0,0,1-6.24,0Zm5.14-1.59a3.66,3.66,0,0,0,1.39-1.45,4.44,4.44,0,0,0,.51-2.15,4.37,4.37,0,0,0-.51-2.14,3.54,3.54,0,0,0-1.39-1.45,4.31,4.31,0,0,0-4,0A3.71,3.71,0,0,0,540,120a4.37,4.37,0,0,0-.51,2.14,4.44,4.44,0,0,0,.51,2.15,3.85,3.85,0,0,0,1.41,1.45,4.24,4.24,0,0,0,4,0Z" transform="translate(-0.25 -0.25)"/><path class="cls-1" d="M559.14,113.7a1.3,1.3,0,0,1-.4-1,1.34,1.34,0,0,1,.4-1,1.54,1.54,0,0,1,2.05,0,1.28,1.28,0,0,1,.41,1,1.4,1.4,0,0,1-1.43,1.41A1.46,1.46,0,0,1,559.14,113.7Zm0,2.64h2.11V128h-2.11Z" transform="translate(-0.25 -0.25)"/><path class="cls-1" d="M581.18,117a5.41,5.41,0,0,1,2.1,2.09,6.24,6.24,0,0,1,.76,3.1,6.31,6.31,0,0,1-.76,3.11,5.37,5.37,0,0,1-2.1,2.1,6.14,6.14,0,0,1-3,.75,5.44,5.44,0,0,1-2.3-.48,4.66,4.66,0,0,1-1.77-1.41v6H572V116.34h2v1.85a4.52,4.52,0,0,1,1.78-1.47,5.66,5.66,0,0,1,2.38-.49A6.14,6.14,0,0,1,581.18,117Zm-1.2,8.79a3.85,3.85,0,0,0,1.41-1.45,4.44,4.44,0,0,0,.51-2.15,4.37,4.37,0,0,0-.51-2.14,3.71,3.71,0,0,0-1.41-1.45,4.12,4.12,0,0,0-2-.5,4,4,0,0,0-2,.51,3.75,3.75,0,0,0-1.4,1.45,4.2,4.2,0,0,0-.52,2.13,4.55,4.55,0,0,0,.5,2.15,3.71,3.71,0,0,0,1.41,1.45,4.22,4.22,0,0,0,4,0Z" transform="translate(-0.25 -0.25)"/></g></g><polyline id="Path-2-2" data-name="Path-2" class="cls-3" points="202.56 63.38 202.56 1.75 1.75 1.75 1.75 123.96 102.16 123.96"/></g></g></g></svg>