<svg width="242" height="54" viewBox="0 0 242 54" fill="none" xmlns="http://www.w3.org/2000/svg">
<g id="Group">
<path id="ower" d="M108.63 40.14C106.25 40.14 104.092 39.6033 102.155 38.53C100.242 37.4567 98.7367 35.975 97.64 34.085C96.5433 32.195 95.995 30.0833 95.995 27.75C95.995 25.4167 96.5433 23.305 97.64 21.415C98.7367 19.525 100.242 18.0433 102.155 16.97C104.092 15.8967 106.25 15.36 108.63 15.36C111.01 15.36 113.168 15.8967 115.105 16.97C117.042 18.0433 118.558 19.525 119.655 21.415C120.752 23.305 121.3 25.4167 121.3 27.75C121.3 30.0833 120.752 32.195 119.655 34.085C118.558 35.975 117.042 37.4567 115.105 38.53C113.168 39.6033 111.01 40.14 108.63 40.14ZM108.63 39.055C110.777 39.055 112.725 38.565 114.475 37.585C116.225 36.605 117.602 35.2517 118.605 33.525C119.608 31.7983 120.11 29.8733 120.11 27.75C120.11 25.6267 119.608 23.7017 118.605 21.975C117.602 20.2483 116.225 18.895 114.475 17.915C112.725 16.935 110.777 16.445 108.63 16.445C106.483 16.445 104.535 16.935 102.785 17.915C101.058 18.895 99.6933 20.2483 98.69 21.975C97.6867 23.7017 97.185 25.6267 97.185 27.75C97.185 29.8733 97.6867 31.7983 98.69 33.525C99.6933 35.2517 101.058 36.605 102.785 37.585C104.535 38.565 106.483 39.055 108.63 39.055ZM167.353 15.5L158.988 40H157.798L149.818 17.145L141.873 40H140.648L132.283 15.5H133.543L141.278 38.285L149.258 15.5H150.413L158.358 38.32L166.163 15.5H167.353ZM197.547 38.915V40H180.992V15.5H197.057V16.585H182.182V27.015H195.482V28.1H182.182V38.915H197.547ZM229.761 40L223.706 31.565C222.912 31.705 222.026 31.775 221.046 31.775H213.731V40H212.541V15.5H221.046C224.102 15.5 226.482 16.2233 228.186 17.67C229.912 19.0933 230.776 21.0767 230.776 23.62C230.776 25.58 230.262 27.225 229.236 28.555C228.232 29.8617 226.786 30.7717 224.896 31.285L231.161 40H229.761ZM221.116 30.69C223.846 30.69 225.946 30.0833 227.416 28.87C228.886 27.6333 229.621 25.8833 229.621 23.62C229.621 21.38 228.886 19.6533 227.416 18.44C225.946 17.2033 223.846 16.585 221.116 16.585H213.731V30.69H221.116Z" fill="white"/>
<path id="itp" d="M13.57 16.2H16.97V40H13.57V16.2ZM33.9114 19.158H25.7514V16.2H45.4374V19.158H37.2774V40H33.9114V19.158ZM63.5125 16.2C66.5951 16.2 69.0205 16.9367 70.7885 18.41C72.5565 19.8833 73.4405 21.912 73.4405 24.496C73.4405 27.08 72.5565 29.1087 70.7885 30.582C69.0205 32.0553 66.5951 32.792 63.5125 32.792H57.6305V40H54.2305V16.2H63.5125ZM63.4105 29.834C65.5638 29.834 67.2071 29.3807 68.3405 28.474C69.4738 27.5447 70.0405 26.2187 70.0405 24.496C70.0405 22.7733 69.4738 21.4587 68.3405 20.552C67.2071 19.6227 65.5638 19.158 63.4105 19.158H57.6305V29.834H63.4105Z" fill="white"/>
<path id="Path 2" d="M83.8115 27.3287V1H1V53.21H42.4058" stroke="white" stroke-width="1.5" stroke-linecap="round" stroke-linejoin="round"/>
</g>
</svg>
