<?xml version="1.0" encoding="UTF-8"?>
<svg width="32px" height="32px" viewBox="0 0 32 32" version="1.1" xmlns="http://www.w3.org/2000/svg" xmlns:xlink="http://www.w3.org/1999/xlink">
    <!-- Generator: Sketch 52.2 (67145) - http://www.bohemiancoding.com/sketch -->
    <title>skype-logo (1)</title>
    <desc>Created with Sketch.</desc>
    <g id="Page-1" stroke="none" stroke-width="1" fill="none" fill-rule="evenodd">
        <g id="Main_page" transform="translate(-106.000000, -7330.000000)" fill="#E23207" fill-rule="nonzero">
            <g id="Group-2" transform="translate(106.000000, 7330.000000)">
                <g id="skype-logo-(1)">
                    <path d="M30.6015035,18.2792019 C30.7206682,17.5252343 30.783406,16.7538933 30.783406,15.9665893 C30.783406,7.78357309 24.1501253,1.15044084 15.9668863,1.15044084 C15.1816613,1.15044084 14.4080928,1.21510905 13.6547935,1.33293735 C12.2902274,0.488612529 10.6796845,0 8.9536891,0 C4.00898376,0 0.000371229698,4.00809281 0.000371229698,8.95331787 C0.000371229698,10.678942 0.489280742,12.2881485 1.33323434,13.6554617 C1.21644548,14.4106914 1.15214849,15.1795824 1.15214849,15.9668863 C1.15214849,24.1504965 7.78528074,30.7816241 15.9665893,30.7816241 C16.7524826,30.7816241 17.5262738,30.7210394 18.2794988,30.6021717 C19.6454756,31.4448631 21.2546821,31.9348121 22.9803063,31.9348121 C27.926348,31.9348121 31.9345151,27.9256798 31.9345151,22.9806032 C31.9348863,21.2543109 31.4462738,19.6454756 30.6015035,18.2792019 Z M23.0014664,22.7051508 C22.3746821,23.6074617 21.4539582,24.3125754 20.250877,24.8196009 C19.0453457,25.3279629 17.6204919,25.5809188 15.9750534,25.5809188 C14.0029327,25.5809188 12.370116,25.2358237 11.0812807,24.5389513 C10.1676845,24.0399443 9.42463109,23.3705429 8.85338283,22.5357958 C8.28094664,21.7003805 7.99071926,20.8822645 7.99071926,20.0845661 C7.99071926,19.6139954 8.17017169,19.2047517 8.51949884,18.8710905 C8.87246404,18.5349791 9.32707193,18.3665151 9.86364733,18.3665151 C10.3031833,18.3665151 10.6807239,18.4988956 10.9881021,18.7612065 C11.2931787,19.0234432 11.5491044,19.4046961 11.7584037,19.9077865 C12.0092807,20.4906172 12.2817633,20.977819 12.5716937,21.3665708 C12.8598422,21.7504965 13.2653735,22.0710162 13.7905893,22.3218933 C14.3100139,22.5734385 15.0013179,22.6992111 15.8663573,22.6992111 C17.0502088,22.6992111 18.006942,22.4431369 18.7391555,21.9379675 C19.4750812,21.4281949 19.8285661,20.8079443 19.8285661,20.0585058 C19.8285661,19.4607517 19.6379768,18.9860232 19.2471462,18.6159072 C18.8527517,18.2409652 18.3434246,17.9554153 17.7113689,17.7562135 C17.0768631,17.5549327 16.2249652,17.3414756 15.1573828,17.1165847 C13.7238422,16.8037123 12.5249188,16.439536 11.5540046,16.0213086 C10.5818283,15.601522 9.80759165,15.0276752 9.23374478,14.3028121 C8.65870998,13.5708213 8.37197216,12.6610116 8.37197216,11.583406 C8.37197216,10.5558422 8.67467285,9.63690023 9.28066821,8.83712297 C9.88636659,8.03511833 10.7626914,7.4212529 11.9053364,6.99367053 C13.0439722,6.56623666 14.3844826,6.35240835 15.9201856,6.35240835 C17.1482877,6.35240835 18.2105986,6.49451508 19.1097912,6.77724362 C20.0065336,7.06205104 20.7540418,7.43788399 21.3517216,7.9094942 C21.9456148,8.38006497 22.3826265,8.87639907 22.6594153,9.39723434 C22.9359814,9.91962877 23.0752668,10.4298469 23.0752668,10.9277401 C23.0752668,11.3906636 22.8958144,11.8105244 22.546116,12.1784872 C22.1964919,12.5469698 21.7492343,12.7348121 21.2269142,12.7331044 C20.7560464,12.7331044 20.3866729,12.6244826 20.1305244,12.3945429 C19.881058,12.1721021 19.6190441,11.817949 19.3356473,11.3243619 C18.9774107,10.6356566 18.5483434,10.0990812 18.0494107,9.71530394 C17.5636195,9.33865429 16.7621346,9.14257077 15.6468863,9.14494664 C14.6150162,9.14494664 13.7894014,9.3558051 13.1662552,9.76816705 C12.5392483,10.1871369 12.2395174,10.6732251 12.2381067,11.2427657 C12.2391462,11.5996659 12.3417541,11.9005847 12.548232,12.1579211 C12.7579026,12.4176334 13.0496148,12.6426729 13.4245568,12.8323712 C13.7996473,13.0250394 14.1811972,13.174051 14.5646032,13.2812622 C14.9525383,13.3912204 15.5961763,13.550181 16.4908399,13.7606682 C17.6128445,14.0024872 18.6305336,14.2726682 19.5450209,14.5671276 C20.4577262,14.8630719 21.2366404,15.2199722 21.8801299,15.6451787 C22.5287425,16.069123 23.0356937,16.6096334 23.3975684,17.262478 C23.7620418,17.9163619 23.9435731,18.7150255 23.9435731,19.6548306 C23.9449838,20.7864872 23.6297355,21.8042506 23.0014664,22.7051508 Z" id="Skype"></path>
                </g>
            </g>
        </g>
    </g>
</svg>