<?xml version="1.0" encoding="UTF-8"?>
<svg width="32px" height="32px" viewBox="0 0 32 32" version="1.1" xmlns="http://www.w3.org/2000/svg" xmlns:xlink="http://www.w3.org/1999/xlink">
    <!-- Generator: Sketch 52.2 (67145) - http://www.bohemiancoding.com/sketch -->
    <title>telegram</title>
    <desc>Created with Sketch.</desc>
    <g id="Page-1" stroke="none" stroke-width="1" fill="none" fill-rule="evenodd">
        <g id="Main_page" transform="translate(-108.000000, -7408.000000)" fill="#E23207">
            <g id="telegram" transform="translate(108.000000, 7408.000000)">
                <path d="M16,32 C24.836556,32 32,24.836556 32,16 C32,7.163444 24.836556,0 16,0 C7.163444,0 0,7.163444 0,16 C0,24.836556 7.163444,32 16,32 Z M24.448066,8.14376291 L20.9653891,25.3241915 C20.8833679,25.7298227 20.41958,25.9136295 20.092342,25.6697564 L15.3381735,22.1298542 C15.0495683,21.9149118 14.6560097,21.9263371 14.3797175,22.1573818 L11.7438331,24.3609928 C11.4379637,24.6175607 10.9769771,24.4745776 10.8598412,24.088189 L9.02957587,18.0514267 L4.30094531,16.2414871 C3.82060979,16.0569453 3.81650548,15.3614725 4.29547289,15.1722537 L23.7018618,7.49425857 C24.1132709,7.33109742 24.5377095,7.70071556 24.448066,8.14376291 Z" id="Shape" fill-rule="nonzero"></path>
                <path d="M20.5200899,11.2543813 L11.1167486,17.064897 C10.756336,17.2880279 10.5867028,17.7247128 10.7029735,18.1335312 L11.7196459,21.7176591 C11.791967,21.9715828 12.1592074,21.945645 12.1944068,21.683275 L12.4586342,19.7177941 C12.5085497,19.3477492 12.6844141,19.0066349 12.9572591,18.7519797 L20.7176307,11.5145566 C20.8629359,11.3795474 20.6889939,11.1502979 20.5200899,11.2543813 Z" id="Path"></path>
            </g>
        </g>
    </g>
</svg>